<svg width="195" height="195" viewBox="0 0 195 195" fill="none" xmlns="http://www.w3.org/2000/svg">
<circle cx="10.8798" cy="10.8798" r="10.8798" fill="#A6C2FF" fill-opacity="0.24"/>
<circle cx="54.19" cy="10.8798" r="10.8798" fill="#A6C2FF" fill-opacity="0.24"/>
<circle cx="10.8798" cy="54.19" r="10.8798" fill="#A6C2FF" fill-opacity="0.24"/>
<circle cx="54.19" cy="54.19" r="10.8798" fill="#A6C2FF" fill-opacity="0.24"/>
<circle cx="97.4999" cy="54.19" r="10.8798" fill="#A6C2FF" fill-opacity="0.24"/>
<circle cx="140.81" cy="54.19" r="10.8798" fill="#A6C2FF" fill-opacity="0.24"/>
<circle cx="184.12" cy="54.19" r="10.8798" fill="#A6C2FF" fill-opacity="0.24"/>
<circle cx="10.8798" cy="97.5001" r="10.8798" fill="#A6C2FF" fill-opacity="0.24"/>
<circle cx="54.19" cy="97.5001" r="10.8798" fill="#A6C2FF" fill-opacity="0.24"/>
<circle cx="97.4999" cy="97.5001" r="10.8798" fill="#A6C2FF" fill-opacity="0.24"/>
<circle cx="140.81" cy="97.5001" r="10.8798" fill="#A6C2FF" fill-opacity="0.24"/>
<circle cx="184.12" cy="97.5001" r="10.8798" fill="#A6C2FF" fill-opacity="0.24"/>
<circle cx="10.8798" cy="140.81" r="10.8798" fill="#A6C2FF" fill-opacity="0.24"/>
<circle cx="54.19" cy="140.81" r="10.8798" fill="#A6C2FF" fill-opacity="0.24"/>
<circle cx="97.4999" cy="140.81" r="10.8798" fill="#A6C2FF" fill-opacity="0.24"/>
<circle cx="140.81" cy="140.81" r="10.8798" fill="#A6C2FF" fill-opacity="0.24"/>
<circle cx="184.12" cy="140.81" r="10.8798" fill="#A6C2FF" fill-opacity="0.24"/>
<circle cx="10.8798" cy="184.12" r="10.8798" fill="#A6C2FF" fill-opacity="0.24"/>
<circle cx="54.19" cy="184.12" r="10.8798" fill="#A6C2FF" fill-opacity="0.24"/>
<circle cx="97.4999" cy="184.12" r="10.8798" fill="#A6C2FF" fill-opacity="0.24"/>
<circle cx="140.81" cy="184.12" r="10.8798" fill="#A6C2FF" fill-opacity="0.24"/>
<circle cx="184.12" cy="184.12" r="10.8798" fill="#A6C2FF" fill-opacity="0.24"/>
<circle cx="97.4999" cy="10.8798" r="10.8798" fill="#A6C2FF" fill-opacity="0.24"/>
<circle cx="140.81" cy="10.8798" r="10.8798" fill="#A6C2FF" fill-opacity="0.24"/>
<circle cx="184.12" cy="10.8798" r="10.8798" fill="#A6C2FF" fill-opacity="0.24"/>
</svg>
