<svg width="500" height="500" viewBox="0 0 500 500" fill="none" xmlns="http://www.w3.org/2000/svg">
<path d="M409 78L406.88 74.55C389 45.45 356.74 27.93 322.7 30.06C318.33 30.332 313.985 30.9202 309.7 31.82C278.7 38.37 251.81 61.48 240.65 91.08C234.08 108.49 232.25 128.54 219.79 142.36C203.57 160.36 176.04 160.9 151.84 160.16C127.64 159.42 100.09 160.05 83.95 178.1C73.85 189.41 70.63 205.49 71.45 220.64C73.61 260.73 101.9 296.58 137.88 314.4C173.86 332.22 216.19 333.81 255.57 326C310.73 315 363.19 284.87 394.73 238.29C426.27 191.71 434.24 128.23 409 78Z" fill="#F0F5FF"/>
<path d="M188.07 88.8C182.07 81.99 169.53 78.24 160.43 79.27C156.271 79.1643 152.144 80.0348 148.382 81.8115C144.62 83.5883 141.326 86.2219 138.765 89.5013C136.204 92.7806 134.447 96.6144 133.636 100.695C132.824 104.776 132.979 108.99 134.09 113C137.47 125.26 149.51 133.67 162 136.06C170 137.58 178.8 136.88 185.35 132.06C191.9 127.24 195.14 119.36 196.01 111.44C197 102.42 194.06 95.61 188.07 88.8Z" fill="#F0F5FF"/>
<path d="M480.15 444.82C480.15 444.96 377.15 445.08 250.01 445.08C122.87 445.08 19.85 445 19.85 444.82C19.85 444.64 122.85 444.56 250.01 444.56C377.17 444.56 480.15 444.68 480.15 444.82Z" fill="#263238"/>
<path d="M455.19 145.13H309.91V242.41H455.19V145.13Z" fill="white"/>
<path d="M455.19 242.4C455.19 242.4 455.19 241.79 455.19 240.63V235.5C455.19 231 455.19 224.39 455.13 215.94C455.13 199.03 455.07 174.74 455.02 145.13L455.23 145.33L309.96 145.39L310.22 145.13C310.22 179.78 310.22 212.73 310.22 242.4L309.98 242.16L414.65 242.28L444.55 242.34H452.5H454.56H452.56H444.65L414.8 242.4L309.98 242.52H309.74V242.28C309.74 212.61 309.74 179.66 309.74 145.01V144.74H310.01L455.28 144.8H455.49V145.01C455.49 174.68 455.41 199.01 455.38 215.94C455.38 224.38 455.38 230.94 455.33 235.46C455.33 237.69 455.33 239.4 455.33 240.56C455.33 241.72 455.19 242.4 455.19 242.4Z" fill="#3271FC"/>
<path d="M309.91 153.81C309.91 153.66 342.41 153.55 382.49 153.55C422.57 153.55 455.07 153.66 455.07 153.81C455.07 153.96 422.58 154.07 382.49 154.07C342.4 154.07 309.91 154 309.91 153.81Z" fill="#3271FC"/>
<g opacity="0.3">
<path opacity="0.3" d="M315.64 149.43C315.64 149.662 315.571 149.888 315.442 150.081C315.313 150.274 315.13 150.424 314.915 150.512C314.701 150.6 314.465 150.623 314.238 150.577C314.011 150.531 313.802 150.418 313.639 150.254C313.476 150.089 313.365 149.88 313.321 149.652C313.277 149.424 313.302 149.189 313.392 148.975C313.482 148.762 313.634 148.58 313.827 148.452C314.021 148.325 314.248 148.258 314.48 148.26C314.633 148.26 314.785 148.29 314.926 148.349C315.068 148.408 315.196 148.494 315.304 148.603C315.412 148.712 315.497 148.841 315.555 148.983C315.612 149.125 315.641 149.277 315.64 149.43Z" fill="#3271FC"/>
</g>
<g opacity="0.3">
<path opacity="0.3" d="M319.63 149.43C319.63 149.662 319.561 149.888 319.432 150.081C319.303 150.274 319.12 150.424 318.905 150.512C318.691 150.6 318.455 150.623 318.228 150.577C318.001 150.531 317.792 150.418 317.629 150.254C317.466 150.089 317.355 149.88 317.311 149.652C317.267 149.424 317.292 149.189 317.382 148.975C317.472 148.762 317.624 148.58 317.817 148.452C318.011 148.325 318.238 148.258 318.47 148.26C318.623 148.26 318.775 148.29 318.916 148.349C319.058 148.408 319.186 148.494 319.294 148.603C319.402 148.712 319.487 148.841 319.545 148.983C319.602 149.125 319.631 149.277 319.63 149.43Z" fill="#3271FC"/>
</g>
<g opacity="0.3">
<path opacity="0.3" d="M323.56 149.43C323.56 149.662 323.491 149.888 323.362 150.081C323.233 150.274 323.05 150.424 322.835 150.512C322.621 150.6 322.385 150.623 322.158 150.577C321.931 150.531 321.722 150.418 321.559 150.254C321.396 150.089 321.285 149.88 321.241 149.652C321.197 149.424 321.222 149.189 321.312 148.975C321.402 148.762 321.554 148.58 321.747 148.452C321.941 148.325 322.168 148.258 322.4 148.26C322.553 148.26 322.705 148.29 322.846 148.349C322.988 148.408 323.116 148.494 323.224 148.603C323.332 148.712 323.417 148.841 323.475 148.983C323.532 149.125 323.561 149.277 323.56 149.43Z" fill="#3271FC"/>
</g>
<path d="M361.15 163.95H322.4V202.7H361.15V163.95Z" fill="#3271FC"/>
<path d="M435.27 174.9C435.27 175.05 420.15 175.16 401.51 175.16C382.87 175.16 367.75 175.05 367.75 174.9C367.75 174.75 382.87 174.64 401.51 174.64C420.15 174.64 435.27 174.76 435.27 174.9Z" fill="#3271FC"/>
<path d="M435.27 182.11C435.27 182.25 420.15 182.37 401.51 182.37C382.87 182.37 367.75 182.25 367.75 182.11C367.75 181.97 382.87 181.85 401.51 181.85C420.15 181.85 435.27 182 435.27 182.11Z" fill="#3271FC"/>
<path d="M435.27 189.31C435.27 189.45 420.15 189.57 401.51 189.57C382.87 189.57 367.75 189.45 367.75 189.31C367.75 189.17 382.87 189.05 401.51 189.05C420.15 189.05 435.27 189.16 435.27 189.31Z" fill="#3271FC"/>
<path d="M407.66 196.51C407.141 196.591 406.615 196.625 406.09 196.61L401.81 196.69C398.2 196.74 393.21 196.77 387.71 196.77C382.21 196.77 377.21 196.77 373.6 196.69L369.32 196.61C368.795 196.625 368.269 196.591 367.75 196.51C368.269 196.429 368.795 196.395 369.32 196.41L373.6 196.33C377.21 196.28 382.2 196.25 387.71 196.25C393.22 196.25 398.2 196.25 401.81 196.33L406.09 196.41C406.615 196.395 407.141 196.429 407.66 196.51Z" fill="#3271FC"/>
<g opacity="0.3">
<path opacity="0.3" d="M343.03 215.77H324.82V233.98H343.03V215.77Z" fill="#3271FC"/>
</g>
<path d="M376.06 215.77H357.85V233.98H376.06V215.77Z" fill="#3271FC"/>
<path d="M409.09 215.77H390.88V233.98H409.09V215.77Z" fill="#3271FC"/>
<path d="M442.12 215.77H423.91V233.98H442.12V215.77Z" fill="#3271FC"/>
<g opacity="0.3">
<path opacity="0.3" d="M361.15 163.95H322.4V202.7H361.15V163.95Z" fill="white"/>
</g>
<g opacity="0.3">
<path opacity="0.3" d="M376.06 215.77H357.85V233.98H376.06V215.77Z" fill="white"/>
</g>
<g opacity="0.3">
<path opacity="0.3" d="M409.09 215.77H390.88V233.98H409.09V215.77Z" fill="white"/>
</g>
<g opacity="0.3">
<path opacity="0.3" d="M442.12 215.77H423.91V233.98H442.12V215.77Z" fill="white"/>
</g>
<path d="M173.63 180.17H44.21V232.74H173.63V180.17Z" fill="white"/>
<path d="M173.63 232.74C173.63 232.74 173.63 232.42 173.63 231.8C173.63 231.18 173.63 230.27 173.63 229.07C173.63 226.67 173.63 223.15 173.63 218.61C173.63 209.54 173.63 196.41 173.55 180.17L173.69 180.31L44.28 180.37L44.49 180.17C44.49 198.58 44.49 216.35 44.49 232.74L44.29 232.54L137.08 232.63L164 232.69H171.21H173.07H171.25H164.09L137.22 232.74L44.29 232.83H44V180H44.21L173.62 180.07H173.77V180.21C173.77 196.49 173.71 209.64 173.69 218.74C173.69 223.26 173.69 226.74 173.69 229.17C173.69 230.35 173.69 231.25 173.69 231.87C173.69 232.49 173.63 232.74 173.63 232.74Z" fill="#3271FC"/>
<path d="M44.34 187.26C44.34 187.15 73.27 187.05 108.94 187.05C144.61 187.05 173.56 187.15 173.56 187.26C173.56 187.37 144.63 187.46 108.94 187.46C73.25 187.46 44.34 187.37 44.34 187.26Z" fill="#3271FC"/>
<g opacity="0.3">
<path opacity="0.3" d="M49.76 184.09C49.76 184.276 49.7049 184.458 49.6016 184.612C49.4983 184.767 49.3515 184.887 49.1797 184.958C49.008 185.03 48.819 185.048 48.6366 185.012C48.4543 184.976 48.2868 184.886 48.1553 184.755C48.0239 184.623 47.9343 184.456 47.8981 184.273C47.8618 184.091 47.8804 183.902 47.9516 183.73C48.0227 183.559 48.1432 183.412 48.2978 183.308C48.4523 183.205 48.6341 183.15 48.82 183.15C49.0693 183.15 49.3084 183.249 49.4847 183.425C49.661 183.602 49.76 183.841 49.76 184.09Z" fill="#3271FC"/>
</g>
<g opacity="0.3">
<path opacity="0.3" d="M53 184.09C53 184.276 52.9449 184.458 52.8416 184.612C52.7383 184.767 52.5915 184.887 52.4197 184.958C52.248 185.03 52.059 185.048 51.8766 185.012C51.6943 184.976 51.5268 184.886 51.3953 184.755C51.2639 184.623 51.1743 184.456 51.1381 184.273C51.1018 184.091 51.1204 183.902 51.1916 183.73C51.2627 183.559 51.3832 183.412 51.5378 183.308C51.6923 183.205 51.8741 183.15 52.06 183.15C52.3093 183.15 52.5484 183.249 52.7247 183.425C52.901 183.602 53 183.841 53 184.09Z" fill="#3271FC"/>
</g>
<g opacity="0.3">
<path opacity="0.3" d="M56.15 184.09C56.15 184.276 56.0949 184.458 55.9916 184.612C55.8883 184.767 55.7415 184.887 55.5697 184.958C55.398 185.03 55.209 185.048 55.0266 185.012C54.8443 184.976 54.6768 184.886 54.5453 184.755C54.4139 184.623 54.3243 184.456 54.2881 184.273C54.2518 184.091 54.2704 183.902 54.3416 183.73C54.4127 183.559 54.5332 183.412 54.6878 183.308C54.8423 183.205 55.0241 183.15 55.21 183.15C55.4593 183.15 55.6984 183.249 55.8747 183.425C56.051 183.602 56.15 183.841 56.15 184.09Z" fill="#3271FC"/>
</g>
<path d="M86.47 195.8H55.21V227.06H86.47V195.8Z" fill="#3271FC"/>
<path d="M164.68 204.18C164.68 204.29 148.59 204.39 128.75 204.39C108.91 204.39 92.82 204.29 92.82 204.18C92.82 204.07 108.91 203.98 128.75 203.98C148.59 203.98 164.68 204.07 164.68 204.18Z" fill="#3271FC"/>
<path d="M164.68 210.55C164.68 210.66 148.59 210.75 128.75 210.75C108.91 210.75 92.82 210.66 92.82 210.55C92.82 210.44 108.91 210.34 128.75 210.34C148.59 210.34 164.68 210.44 164.68 210.55Z" fill="#3271FC"/>
<path d="M139.08 216.92C138.924 216.931 138.766 216.931 138.61 216.92H137.26L132.31 216.98L115.95 217.04L99.6 216.98L94.6 216.92H93.25C93.0935 216.93 92.9365 216.93 92.78 216.92C92.9358 216.897 93.0942 216.897 93.25 216.92H94.6L99.6 216.85L115.95 216.79L132.31 216.85L137.26 216.92H138.61C138.766 216.896 138.924 216.896 139.08 216.92Z" fill="#3271FC"/>
<g opacity="0.3">
<path opacity="0.3" d="M86.47 195.8H55.21V227.06H86.47V195.8Z" fill="#F5F5F5"/>
</g>
<path d="M268.73 114.11C266.56 112.66 263.58 113.54 261.41 114.99C259.24 116.44 257.41 118.42 254.96 119.36C250.4 121.13 244.41 119.03 240.87 122.36C238.62 124.5 238.39 128.02 236.67 130.61C233.77 134.97 226.81 136.61 226.22 141.81C225.87 144.81 228.27 147.75 231.22 148.6C232.71 148.95 234.258 148.975 235.759 148.675C237.26 148.375 238.679 147.756 239.92 146.86C242.92 144.86 245.23 141.86 248.61 140.72C251.99 139.58 256.34 140.53 259.07 138.12C261.8 135.71 261.39 131.26 263.35 128.18C264.529 126.632 265.927 125.264 267.5 124.12C268.97 122.85 270.37 121.28 270.62 119.35C270.87 117.42 270.08 114.13 268.75 114.06" fill="#F5F5F5"/>
<path d="M212.38 326.56C212.51 326.49 212.91 326.89 213.29 327.46C213.67 328.03 213.88 328.57 213.76 328.65C213.64 328.73 213.24 328.33 212.85 327.75C212.46 327.17 212.26 326.64 212.38 326.56Z" fill="#263238"/>
<path d="M208.1 317.54C208.64 318.194 209.044 318.949 209.29 319.76C209.685 320.508 209.926 321.327 210 322.17C209.055 320.774 208.408 319.198 208.1 317.54Z" fill="#263238"/>
<path d="M205.78 307.82C206.421 309.379 206.731 311.055 206.69 312.74C206.291 311.994 206.049 311.174 205.98 310.33C205.746 309.515 205.678 308.662 205.78 307.82Z" fill="#263238"/>
<path d="M205.43 297.83C205.747 299.484 205.723 301.185 205.36 302.83C205.106 302.023 205.028 301.17 205.13 300.33C205.052 299.485 205.154 298.633 205.43 297.83Z" fill="#263238"/>
<path d="M207 288C207.081 288.843 206.989 289.694 206.73 290.5C206.63 291.34 206.365 292.153 205.95 292.89C205.87 292.047 205.962 291.196 206.22 290.39C206.321 289.55 206.586 288.738 207 288Z" fill="#263238"/>
<path d="M210.64 278.65C210.306 280.295 209.624 281.85 208.64 283.21C208.74 282.368 209.009 281.556 209.43 280.82C210 279.55 210.51 278.58 210.64 278.65Z" fill="#263238"/>
<path d="M216.15 270.31C215.873 271.112 215.438 271.85 214.87 272.48C214.42 273.194 213.848 273.824 213.18 274.34C213.04 274.25 213.62 273.28 214.45 272.17C215.28 271.06 216 270.22 216.15 270.31Z" fill="#263238"/>
<path d="M222.87 262.91C222.98 263.01 222.29 263.91 221.34 264.91C220.39 265.91 219.53 266.63 219.42 266.54C219.31 266.45 220 265.54 220.96 264.54C221.92 263.54 222.77 262.8 222.87 262.91Z" fill="#263238"/>
<path d="M229.91 255.79C230.02 255.89 229.31 256.79 228.34 257.79C227.37 258.79 226.5 259.49 226.4 259.39C226.3 259.29 227 258.39 227.97 257.39C228.94 256.39 229.81 255.69 229.91 255.79Z" fill="#263238"/>
<path d="M236.49 248.25C236.173 249.037 235.7 249.751 235.1 250.35C234.22 251.43 233.42 252.22 233.31 252.12C233.636 251.338 234.108 250.626 234.7 250.02C235.57 249 236.37 248.17 236.49 248.25Z" fill="#263238"/>
<path d="M241.59 239.67C241.5 240.518 241.213 241.333 240.75 242.05C240.433 242.842 239.936 243.551 239.3 244.12C239.494 243.297 239.832 242.515 240.3 241.81C240.606 241.029 241.042 240.305 241.59 239.67Z" fill="#263238"/>
<path d="M244 230C244.195 230.831 244.178 231.697 243.95 232.52C243.892 233.374 243.628 234.201 243.18 234.93C243.129 234.091 243.216 233.25 243.44 232.44C243.494 231.602 243.683 230.778 244 230Z" fill="#263238"/>
<path d="M243.28 220.07C243.723 220.799 243.978 221.628 244.02 222.48C244.225 223.311 244.225 224.179 244.02 225.01C243.705 224.229 243.523 223.401 243.48 222.56C243.279 221.746 243.211 220.905 243.28 220.07Z" fill="#263238"/>
<path d="M239.35 210.92C239.47 210.84 240.2 211.71 240.86 212.92C241.336 213.631 241.632 214.448 241.72 215.3C241.169 214.665 240.724 213.946 240.4 213.17C239.937 212.478 239.583 211.719 239.35 210.92Z" fill="#263238"/>
<path d="M232.38 203.82C233.195 204.076 233.936 204.525 234.54 205.13C235.61 206.03 236.31 206.93 236.21 207.03C236.11 207.13 235.21 206.41 234.21 205.53C233.21 204.65 232.29 203.94 232.38 203.82Z" fill="#263238"/>
<path d="M223.29 199.76C224.142 199.708 224.993 199.866 225.77 200.22C226.605 200.413 227.378 200.812 228.02 201.38C227.183 201.285 226.366 201.059 225.6 200.71C224.782 200.527 224 200.205 223.29 199.76Z" fill="#263238"/>
<path d="M213.35 199.31C214.115 198.928 214.966 198.749 215.82 198.79C216.669 198.665 217.535 198.754 218.34 199.05C217.528 199.261 216.688 199.349 215.85 199.31C215.022 199.441 214.178 199.441 213.35 199.31Z" fill="#263238"/>
<path d="M204.13 203C204.04 202.88 204.9 202.13 206.13 201.47C206.838 200.985 207.663 200.698 208.52 200.64C207.868 201.167 207.144 201.598 206.37 201.92C205.681 202.39 204.926 202.754 204.13 203Z" fill="#263238"/>
<path d="M197.26 210.18C197.478 209.352 197.901 208.591 198.49 207.97C199.34 206.86 200.22 206.13 200.32 206.23C200.42 206.33 199.73 207.23 198.9 208.29C198.07 209.35 197.38 210.25 197.26 210.18Z" fill="#263238"/>
<path d="M193.89 219.52C193.733 218.678 193.798 217.809 194.08 217C194.206 216.147 194.55 215.341 195.08 214.66C195.049 215.499 194.89 216.329 194.61 217.12C194.495 217.952 194.252 218.762 193.89 219.52Z" fill="#263238"/>
<path d="M195.08 229.37C194.55 228.689 194.206 227.883 194.08 227.03C193.793 226.222 193.724 225.353 193.88 224.51C194.227 225.273 194.466 226.081 194.59 226.91C194.871 227.702 195.036 228.531 195.08 229.37Z" fill="#263238"/>
<path d="M200.15 237.93C200.04 238.03 199.21 237.25 198.4 236.11C197.834 235.469 197.433 234.701 197.23 233.87C197.36 233.8 198.02 234.7 198.82 235.81C199.376 236.439 199.825 237.156 200.15 237.93Z" fill="#263238"/>
<path d="M207.51 244.68C206.702 244.409 205.967 243.958 205.36 243.36C204.27 242.49 203.52 241.64 203.62 241.53C204.383 241.886 205.08 242.369 205.68 242.96C206.75 243.82 207.6 244.56 207.51 244.68Z" fill="#263238"/>
<path d="M216.18 249.65C214.55 249.215 213.031 248.442 211.72 247.38C212.555 247.524 213.353 247.829 214.07 248.28C214.859 248.589 215.576 249.055 216.18 249.65Z" fill="#263238"/>
<path d="M225.7 252.68C224.851 252.777 223.992 252.674 223.19 252.38C222.345 252.255 221.543 251.929 220.85 251.43C221.693 251.443 222.527 251.595 223.32 251.88C224.154 252.004 224.96 252.274 225.7 252.68Z" fill="#263238"/>
<path d="M235.66 253.19C234.035 253.689 232.303 253.724 230.66 253.29C231.471 253.075 232.314 253.001 233.15 253.07C233.988 252.971 234.836 253.011 235.66 253.19Z" fill="#263238"/>
<path d="M245.28 250.62C243.906 251.618 242.275 252.205 240.58 252.31C241.285 251.85 242.063 251.512 242.88 251.31C243.635 250.945 244.446 250.711 245.28 250.62Z" fill="#263238"/>
<path d="M253.62 245.15C253.72 245.26 252.96 246.15 251.85 246.95C251.229 247.533 250.478 247.962 249.66 248.2C249.58 248.07 250.45 247.38 251.54 246.54C252.155 245.969 252.857 245.5 253.62 245.15Z" fill="#263238"/>
<path d="M260.13 237.59C259.899 238.41 259.477 239.164 258.9 239.79C258.07 240.91 257.24 241.68 257.13 241.59C257.02 241.5 257.67 240.59 258.49 239.48C259.31 238.37 260 237.51 260.13 237.59Z" fill="#263238"/>
<path d="M264.46 228.59C264.457 229.444 264.248 230.284 263.85 231.04C263.33 232.34 262.72 233.3 262.59 233.23C262.711 232.399 262.971 231.594 263.36 230.85C263.6 230.041 263.972 229.278 264.46 228.59Z" fill="#263238"/>
<path d="M266.4 218.8C266.617 220.481 266.382 222.19 265.72 223.75C265.692 222.075 265.922 220.406 266.4 218.8Z" fill="#263238"/>
<path d="M266.14 208.81C266.466 209.592 266.623 210.433 266.6 211.28C266.743 212.116 266.72 212.973 266.53 213.8C266.061 212.177 265.928 210.476 266.14 208.8V208.81Z" fill="#263238"/>
<path d="M264 199.05C264.463 199.762 264.773 200.562 264.91 201.4C265.211 202.191 265.347 203.035 265.31 203.88C264.851 203.166 264.542 202.367 264.4 201.53C264.098 200.739 263.962 199.895 264 199.05Z" fill="#263238"/>
<path d="M260.14 189.81C260.27 189.74 260.87 190.7 261.47 191.95C261.893 192.687 262.159 193.505 262.25 194.35C261.292 192.968 260.579 191.433 260.14 189.81Z" fill="#263238"/>
<path d="M255.22 181.1C255.35 181.02 256.01 181.93 256.71 183.1C257.196 183.787 257.537 184.566 257.71 185.39C257.088 184.827 256.581 184.148 256.22 183.39C255.742 182.699 255.402 181.921 255.22 181.1Z" fill="#263238"/>
<path d="M250.26 172.41C250.39 172.34 251.03 173.27 251.7 174.47C252.183 175.17 252.523 175.958 252.7 176.79C252.088 176.202 251.598 175.498 251.26 174.72C250.771 174.027 250.431 173.241 250.26 172.41Z" fill="#263238"/>
<path d="M246.35 163.21C247.255 164.634 247.851 166.231 248.1 167.9C247.571 167.234 247.189 166.464 246.98 165.64C246.607 164.881 246.393 164.054 246.35 163.21Z" fill="#263238"/>
<path d="M244.65 153.38C244.944 154.17 245.093 155.007 245.09 155.85C245.264 156.672 245.294 157.518 245.18 158.35C244.786 157.593 244.58 156.753 244.58 155.9C244.407 155.066 244.431 154.203 244.65 153.38Z" fill="#263238"/>
<path d="M245.48 143.43C245.56 144.267 245.499 145.112 245.3 145.93C245.264 146.773 245.078 147.603 244.75 148.38C244.556 147.548 244.556 146.682 244.75 145.85C244.799 144.997 245.049 144.168 245.48 143.43Z" fill="#263238"/>
<path d="M248.74 134C248.613 134.834 248.342 135.639 247.94 136.38C247.692 137.185 247.31 137.942 246.81 138.62C247.022 136.933 247.69 135.336 248.74 134Z" fill="#263238"/>
<path d="M254.31 125.71C254.42 125.81 253.76 126.71 252.92 127.8C252.08 128.89 251.37 129.8 251.25 129.67C251.487 128.849 251.92 128.098 252.51 127.48C253.36 126.38 254.21 125.62 254.31 125.71Z" fill="#263238"/>
<path d="M261.82 119.13C261.9 119.25 261.03 119.96 259.95 120.8C259.337 121.378 258.63 121.848 257.86 122.19C257.76 122.08 258.53 121.19 259.63 120.39C260.251 119.804 261.001 119.372 261.82 119.13Z" fill="#263238"/>
<path d="M270.72 114.61C270.047 115.116 269.293 115.505 268.49 115.76C267.758 116.172 266.959 116.453 266.13 116.59C266.06 116.46 267.01 115.84 268.29 115.29C269.033 114.869 269.867 114.636 270.72 114.61Z" fill="#263238"/>
<path d="M278 112.77C278 112.91 277.49 113.13 276.82 113.25C276.15 113.37 275.57 113.37 275.54 113.25C275.51 113.13 276.04 112.89 276.72 112.76C277.4 112.63 278 112.63 278 112.77Z" fill="#263238"/>
<path d="M298.38 83.33C298.38 83.33 310.12 74.95 326.38 80.33C326.38 80.33 327.71 93.79 314.68 104.49" fill="#3271FC"/>
<path d="M261.35 108.19C261.85 108.94 274.6 129.43 274.6 129.43L312.87 105.85C314.45 104.877 315.81 103.586 316.864 102.059C317.919 100.532 318.645 98.8034 318.997 96.9815C319.348 95.1597 319.318 93.2846 318.907 91.4752C318.496 89.6658 317.714 87.9614 316.61 86.47C314.559 83.7019 311.52 81.8308 308.124 81.246C304.729 80.6612 301.239 81.4076 298.38 83.33L261.35 108.19Z" fill="#3271FC"/>
<path d="M274.6 129.43L273.74 143.85C273.74 143.85 298.54 131.85 292.35 118.49L274.6 129.43Z" fill="#263238"/>
<path d="M279.08 96.29C279.08 96.29 262.26 88.87 248.42 99.75L261.35 108.19L279.08 96.29Z" fill="#263238"/>
<path d="M279 108.2L255.07 123.2C255.07 123.2 255.89 125.78 256.53 125.56C257.17 125.34 275.06 114.76 280.89 111.31C281.113 111.177 281.304 110.998 281.452 110.785C281.599 110.571 281.698 110.328 281.743 110.073C281.787 109.817 281.776 109.555 281.71 109.305C281.644 109.054 281.525 108.82 281.36 108.62C281.086 108.274 280.694 108.041 280.259 107.963C279.825 107.886 279.377 107.97 279 108.2Z" fill="#263238"/>
<path d="M308.473 98.607C309.441 94.489 306.889 90.3652 302.77 89.3963C298.652 88.4274 294.529 90.9802 293.56 95.0983C292.591 99.2163 295.144 103.34 299.262 104.309C303.38 105.278 307.504 102.725 308.473 98.607Z" fill="#FAFAFA"/>
<path d="M308.67 96.85C308.61 96.85 308.67 96.17 308.33 95.01C307.883 93.3678 306.897 91.9236 305.53 90.91C304.602 90.2132 303.523 89.744 302.38 89.54C301.073 89.307 299.727 89.4243 298.48 89.88C297.086 90.3736 295.873 91.2762 295 92.47C294.064 93.7387 293.56 95.2736 293.56 96.85C293.56 98.4264 294.064 99.9613 295 101.23C295.864 102.418 297.062 103.322 298.44 103.83C299.687 104.285 301.033 104.402 302.34 104.17C303.483 103.966 304.562 103.497 305.49 102.8C306.855 101.784 307.841 100.341 308.29 98.7C308.6 97.54 308.57 96.85 308.63 96.85C308.656 97.0157 308.656 97.1844 308.63 97.35C308.627 97.8216 308.57 98.2914 308.46 98.75C308.121 100.206 307.368 101.533 306.29 102.569C305.213 103.606 303.858 104.308 302.39 104.59C300.929 104.876 299.417 104.74 298.03 104.198C296.644 103.656 295.44 102.731 294.56 101.53C293.554 100.177 293.01 98.5361 293.01 96.85C293.01 95.1639 293.554 93.5227 294.56 92.17C295.486 90.9055 296.772 89.9503 298.25 89.43C299.489 88.981 300.822 88.8547 302.124 89.0629C303.425 89.271 304.653 89.8069 305.69 90.62C307.122 91.7007 308.128 93.2515 308.53 95C308.64 95.4586 308.697 95.9284 308.7 96.4C308.713 96.5507 308.702 96.7024 308.67 96.85Z" fill="#263238"/>
<path d="M318 102C317.9 102 317.79 100.51 317.2 98.18C316.851 96.8172 316.407 95.4805 315.87 94.18C314.537 91.0054 312.655 88.0907 310.31 85.57C309.349 84.5445 308.317 83.5888 307.22 82.71C305.33 81.22 304.02 80.5 304.07 80.41C304.403 80.5218 304.722 80.6729 305.02 80.86C305.388 81.0508 305.745 81.2611 306.09 81.49C306.49 81.76 306.96 82.04 307.44 82.42C308.589 83.2659 309.663 84.2094 310.65 85.24C313.093 87.7604 315.016 90.737 316.31 94C316.839 95.3266 317.257 96.6946 317.56 98.09C317.71 98.68 317.77 99.23 317.85 99.71C317.916 100.117 317.96 100.528 317.98 100.94C318.038 101.291 318.044 101.648 318 102Z" fill="#263238"/>
<path d="M315.94 103.06C315.84 103.06 315.72 101.55 315.12 99.18C314.764 97.7972 314.313 96.4407 313.77 95.12C313.088 93.5096 312.275 91.9577 311.34 90.48C310.387 89.0161 309.317 87.6315 308.14 86.34C307.165 85.2894 306.116 84.3102 305 83.41C303.09 81.88 301.76 81.14 301.81 81.05C302.161 81.165 302.497 81.3229 302.81 81.52C303.18 81.7147 303.537 81.9318 303.88 82.17C304.29 82.44 304.77 82.74 305.25 83.17C306.402 84.0272 307.486 84.9734 308.49 86C309.71 87.2957 310.811 88.6979 311.78 90.19C312.727 91.6961 313.54 93.2821 314.21 94.93C314.745 96.28 315.17 97.6712 315.48 99.09C315.63 99.69 315.69 100.25 315.77 100.73C315.844 101.143 315.89 101.561 315.91 101.98C315.96 102.338 315.97 102.7 315.94 103.06Z" fill="#263238"/>
<path d="M81.84 421C80.98 417.6 83.23 414.2 85.74 411.75C88.25 409.3 91.24 407.11 92.56 403.86C94.69 398.6 91.9 391.75 95.56 387.37C97.68 384.79 101.48 383.95 103.36 381.19C104.236 379.668 104.82 377.996 105.08 376.26C107.123 367.503 111.482 359.456 117.7 352.96C118.087 360.77 116.36 368.54 112.7 375.45C111.23 378.21 109.43 380.9 108.94 383.99C108.12 388.99 110.94 394.18 109.64 399.1C108.19 404.72 101.85 408.46 101.51 414.25C101.23 419.16 105.51 423.48 105.13 428.38C104.867 430.462 104.109 432.451 102.92 434.18C99 440.43 93.43 444.74 85 444.55L74.66 444.85L81.84 421Z" fill="#3271FC"/>
<g opacity="0.3">
<path opacity="0.3" d="M81.84 421C80.98 417.6 83.23 414.2 85.74 411.75C88.25 409.3 91.24 407.11 92.56 403.86C94.69 398.6 91.9 391.75 95.56 387.37C97.68 384.79 101.48 383.95 103.36 381.19C104.236 379.668 104.82 377.996 105.08 376.26C107.123 367.503 111.482 359.456 117.7 352.96C118.087 360.77 116.36 368.54 112.7 375.45C111.23 378.21 109.43 380.9 108.94 383.99C108.12 388.99 110.94 394.18 109.64 399.1C108.19 404.72 101.85 408.46 101.51 414.25C101.23 419.16 105.51 423.48 105.13 428.38C104.867 430.462 104.109 432.451 102.92 434.18C99 440.43 93.43 444.74 85 444.55L74.66 444.85L81.84 421Z" fill="black"/>
</g>
<path d="M72.56 445.11C71.6128 445.253 70.6477 445.226 69.71 445.03C68.5675 444.855 67.4453 444.567 66.36 444.17C64.8629 443.636 63.4641 442.859 62.22 441.87C61.4738 441.264 60.8925 440.48 60.53 439.59C60.2235 438.588 60.0651 437.547 60.06 436.5C60.0445 435.38 59.9711 434.262 59.84 433.15C59.6449 431.969 59.2202 430.838 58.59 429.82C57.39 427.67 55.37 425.64 54.74 422.72C54.11 419.8 54.57 416.72 55.07 413.67C55.57 410.62 56.07 407.19 54.88 403.95C53.69 400.71 51.54 397.78 50.43 394.13C49.32 390.48 49.87 386.49 49.65 382.58C49.5929 380.596 49.1479 378.643 48.34 376.83C47.51 375 46.34 373.27 45.47 371.34C43.66 367.43 43.36 363.02 42.88 358.69C42.65 356.51 42.41 354.3 42.18 352.08C42.0379 349.84 41.6625 347.622 41.06 345.46C40.3781 343.277 39.5667 341.136 38.63 339.05C38.1428 337.969 37.748 336.848 37.45 335.7C37.2798 334.52 37.173 333.332 37.13 332.14C37.0321 329.752 37.1392 327.36 37.45 324.99C37.74 322.61 38.19 320.24 38.45 317.85C38.45 317.71 38.45 317.57 38.45 317.44L38.5 316.97L38.92 317.18C41.1088 318.305 43.0056 319.925 44.46 321.91C45.8833 323.846 47.0247 325.974 47.85 328.23C49.55 332.68 50.14 337.34 50.99 341.78C51.84 346.22 52.91 350.61 55.16 354.31C56.29 356.16 57.65 357.85 58.84 359.65C60.1057 361.407 60.9694 363.422 61.37 365.55C61.95 369.93 59.52 373.76 60 377.63C60.25 379.536 60.9046 381.367 61.92 383C62.85 384.66 63.92 386.19 64.98 387.74C66.043 389.245 66.9636 390.845 67.73 392.52C68.4617 394.163 68.8919 395.925 69 397.72C69.23 401.21 68.72 404.51 69 407.64C69.2664 410.613 70.1159 413.505 71.5 416.15C72.73 418.7 74.11 421.01 75.26 423.24C75.834 424.316 76.3513 425.42 76.81 426.55C77.2231 427.605 77.5215 428.701 77.7 429.82C77.9843 431.776 77.9843 433.764 77.7 435.72C77.414 438.453 76.3755 441.052 74.7 443.23C74.4478 443.555 74.1666 443.856 73.86 444.13C73.6555 444.345 73.4274 444.536 73.18 444.7L72.59 445.11C73.3266 444.517 73.9972 443.847 74.59 443.11C76.195 440.929 77.1798 438.355 77.44 435.66C77.6842 433.725 77.6505 431.765 77.34 429.84C77.1541 428.744 76.8524 427.672 76.44 426.64C76.01 425.57 75.44 424.49 74.89 423.38C73.72 421.17 72.33 418.87 71.07 416.3C69.6467 413.611 68.7667 410.669 68.48 407.64C68.22 404.45 68.72 401.14 68.48 397.73C68.3737 396.004 67.9605 394.311 67.26 392.73C66.4983 391.087 65.5878 389.517 64.54 388.04C63.54 386.5 62.4 384.96 61.44 383.27C60.4056 381.561 59.7444 379.653 59.5 377.67C59.03 373.54 61.44 369.67 60.84 365.62C60.4456 363.588 59.6054 361.668 58.38 360C57.21 358.23 55.84 356.54 54.68 354.65C52.36 350.84 51.24 346.38 50.41 341.91C49.58 337.44 48.96 332.83 47.29 328.47C46.4871 326.274 45.376 324.203 43.99 322.32C42.5968 320.421 40.7828 318.87 38.69 317.79L39.17 317.52L39.12 317.94C38.84 320.36 38.4 322.73 38.12 325.08C37.8094 327.416 37.7023 329.775 37.8 332.13C37.86 333.28 37.93 334.49 38.1 335.58C38.3962 336.684 38.7774 337.764 39.24 338.81C40.1878 340.919 41.0093 343.083 41.7 345.29C42.3011 347.482 42.6731 349.731 42.81 352C43.05 354.22 43.28 356.43 43.51 358.61C43.98 362.96 44.28 367.3 46.02 371.07C46.89 372.95 48.02 374.68 48.88 376.58C49.7172 378.473 50.1791 380.511 50.24 382.58C50.44 386.58 49.9 390.47 50.96 394.01C52.02 397.55 54.25 400.47 55.37 403.82C56.49 407.17 56.04 410.68 55.53 413.77C55.02 416.86 54.53 419.91 55.15 422.66C55.77 425.41 57.68 427.46 58.91 429.66C59.5554 430.719 59.9868 431.895 60.18 433.12C60.3085 434.245 60.3753 435.377 60.38 436.51C60.37 437.525 60.5116 438.536 60.8 439.51C61.1408 440.36 61.6871 441.113 62.39 441.7C63.5893 442.679 64.9404 443.456 66.39 444C67.4574 444.413 68.5627 444.722 69.69 444.92C70.3835 445.046 71.0855 445.119 71.79 445.14C72.31 445.1 72.56 445.11 72.56 445.11Z" fill="#263238"/>
<path d="M40.59 323.15C40.6362 323.249 40.6698 323.353 40.69 323.46C40.74 323.71 40.82 324.01 40.91 324.39C41.11 325.21 41.34 326.44 41.72 327.98C42.1 329.52 43.05 331.25 43.84 333.39C44.63 335.53 45.49 337.97 46.25 340.73C47.01 343.49 47.71 346.56 48.42 349.84C49.0241 353.362 50.118 356.782 51.67 360C52.51 361.68 53.45 363.39 54.2 365.25C54.932 367.162 55.4225 369.157 55.66 371.19C56.1563 375.398 56.874 379.577 57.81 383.71C59.81 392.19 61.81 400.27 63.52 407.63C65.23 414.99 66.94 421.57 68.31 427.14C69.68 432.71 70.72 437.14 71.48 440.3L72.31 443.89C72.39 444.27 72.46 444.58 72.51 444.83C72.521 444.936 72.521 445.044 72.51 445.15C72.4592 445.052 72.4221 444.948 72.4 444.84L72.13 443.92C71.9 443.06 71.58 441.87 71.13 440.36L67.75 427.25C66.35 421.69 64.68 415.09 62.83 407.78C60.98 400.47 59.11 392.34 57.06 383.85C56.1487 379.686 55.4611 375.477 55 371.24C54.7824 369.255 54.3119 367.306 53.6 365.44C52.88 363.63 51.95 361.93 51.11 360.23C49.5647 356.986 48.4777 353.543 47.88 350C47.19 346.71 46.54 343.65 45.8 340.9C45.06 338.15 44.28 335.68 43.49 333.56C42.7 331.44 41.85 329.67 41.49 328.08C41.13 326.49 40.95 325.29 40.8 324.46C40.73 324.08 40.68 323.76 40.64 323.51C40.6064 323.393 40.5896 323.272 40.59 323.15Z" fill="#263238"/>
<path d="M70.73 445.13C64 441.08 62.13 428.89 64.99 421.57C67.85 414.25 72.82 407.57 73.62 399.77C74.24 393.77 72.31 387.59 73.74 381.77C75.68 373.85 83.45 367.77 83.41 359.61C83.41 355.04 80.81 350.72 81.04 346.15C81.33 340.55 85.65 336.15 88.34 331.21C92.46 323.68 92.78 314.75 94.22 306.29C95.66 297.83 98.94 288.77 106.47 284.65C107.54 291.85 109.41 296.79 108.76 306.53C108.52 310.02 104.42 316.7 103.82 324.36C103.47 328.94 103.21 333.53 102.91 338.12C102.61 342.71 102.29 347.12 100.67 351.29C99.43 354.48 97.44 357.37 96.51 360.67C94.76 366.88 96.98 373.62 95.51 379.91C94.31 385.24 90.59 389.81 89.8 395.21C88.7 402.81 93.57 410.73 91.01 417.97C89.74 421.56 86.77 424.43 85.91 428.14C85.24 431.02 85.91 434.07 85.33 436.96C84.33 441.62 75.43 445.19 70.68 444.88" fill="#3271FC"/>
<path d="M104.57 291.73C104.583 291.866 104.583 292.004 104.57 292.14C104.57 292.44 104.48 292.83 104.41 293.32C104.25 294.32 104.07 295.88 103.71 297.85C103.35 299.82 102.28 302.06 101.45 304.74C100.62 307.42 99.7 310.51 98.92 313.98C98.14 317.45 97.47 321.27 96.77 325.39C96.07 329.51 95.3 334 93.23 338.29C92.23 340.44 91.23 342.6 90.39 344.89C89.5995 347.25 89.1057 349.698 88.92 352.18C88.5148 357.454 87.8238 362.701 86.85 367.9C84.72 378.54 82.7 388.68 80.85 397.9L75.69 422.34C74.2 429.26 72.99 434.87 72.15 438.8C71.72 440.71 71.39 442.21 71.15 443.27L70.88 444.43C70.8521 444.563 70.8119 444.694 70.76 444.82C70.7487 444.687 70.7487 444.553 70.76 444.42C70.82 444.12 70.89 443.73 70.97 443.24C71.18 442.17 71.47 440.67 71.85 438.75C72.64 434.81 73.78 429.18 75.18 422.24C76.58 415.3 78.31 406.97 80.18 397.77L86.18 367.77C87.1446 362.59 87.8355 357.363 88.25 352.11C88.4422 349.576 88.9529 347.076 89.77 344.67C90.6 342.33 91.69 340.16 92.65 338.03C94.71 333.81 95.45 329.39 96.2 325.28C96.95 321.17 97.62 317.28 98.45 313.86C99.28 310.44 100.17 307.3 101.08 304.62C101.99 301.94 103.02 299.71 103.43 297.78C103.84 295.85 104.06 294.31 104.26 293.29C104.35 292.8 104.43 292.42 104.48 292.12C104.5 291.988 104.53 291.857 104.57 291.73Z" fill="#263238"/>
<path d="M409.44 287.76H402.47V310.28H409.44V287.76Z" fill="#3271FC"/>
<path d="M422.27 278.49H415.3V310.27H422.27V278.49Z" fill="#3271FC"/>
<path d="M435.92 274.16H428.95V310.27H435.92V274.16Z" fill="#3271FC"/>
<path d="M449.58 269.6H442.61V310.28H449.58V269.6Z" fill="#3271FC"/>
<path d="M167.52 317C168.042 317.073 168.549 317.232 169.02 317.47C170.126 318.01 171.053 318.858 171.69 319.911C172.327 320.965 172.646 322.18 172.61 323.41C172.579 324.571 172.234 325.701 171.61 326.68C170.918 327.769 169.92 328.628 168.74 329.15C167.473 329.713 166.058 329.853 164.705 329.548C163.352 329.244 162.134 328.512 161.23 327.46C160.812 326.966 160.474 326.409 160.23 325.81C159.971 325.24 159.805 324.633 159.74 324.01C159.595 322.857 159.765 321.685 160.23 320.62C160.719 319.49 161.525 318.526 162.551 317.846C163.577 317.167 164.779 316.799 166.01 316.79C166.538 316.77 167.066 316.841 167.57 317C167.57 317 167.01 316.89 166.02 316.93C164.609 316.986 163.26 317.519 162.19 318.44C161.454 319.063 160.875 319.851 160.5 320.74C160.075 321.76 159.927 322.874 160.07 323.97C160.143 324.558 160.305 325.131 160.55 325.67C160.797 326.241 161.135 326.767 161.55 327.23C162.409 328.217 163.562 328.904 164.839 329.19C166.116 329.476 167.452 329.346 168.65 328.82C169.222 328.576 169.749 328.238 170.21 327.82C170.667 327.437 171.062 326.985 171.38 326.48C171.846 325.749 172.154 324.93 172.286 324.074C172.418 323.218 172.371 322.344 172.147 321.507C171.923 320.67 171.528 319.889 170.986 319.213C170.444 318.537 169.768 317.981 169 317.58C168.07 317.11 167.51 317 167.52 317Z" fill="#263238"/>
<path d="M172.6 310.19C172.595 310.117 172.595 310.043 172.6 309.97C172.6 309.8 172.6 309.58 172.6 309.29C172.6 308.67 172.6 307.78 172.6 306.62L172.65 306.68L166.88 305.42L166.98 305.37L165.46 308.6V308.66H165.39C164.112 308.716 162.848 308.941 161.63 309.33H161.56L161.51 309.28L158.97 306.77H159L154 309.95L154.06 309.78L155.26 313.14V313.22L155.2 313.29C154.337 314.23 153.601 315.279 153.01 316.41V316.49H153H149.44L149.59 316.36C149.19 318.17 148.75 320.12 148.31 322.12L148.22 321.93L151.44 323.46L151.53 323.51V323.61C151.587 324.883 151.805 326.143 152.18 327.36V327.46L152.1 327.54L149.58 330.07V329.85L152.74 334.85L152.53 334.77L155.89 333.57H156L156.08 333.64C157.01 334.506 158.053 335.243 159.18 335.83C159.23 335.9 159.09 335.67 159.28 335.99V339.55L159.14 339.37L164.9 340.67L164.7 340.77C165.21 339.68 165.7 338.61 166.23 337.54L166.28 337.45H166.39C167.66 337.402 168.918 337.183 170.13 336.8H170.24L170.31 336.87L172.84 339.4H172.62L177.62 336.25L177.55 336.44C177.14 335.3 176.75 334.18 176.35 333.08V332.99L176.42 332.91C177.288 331.975 178.028 330.93 178.62 329.8V329.72H182.28L182.14 329.84C182.6 327.84 183.03 325.9 183.44 324.07L183.52 324.23L180.3 322.69H180.23V322.61C180.187 321.334 179.971 320.069 179.59 318.85V318.78V318.73L182.12 316.2V316.34L178.98 311.34H179.08L175.71 312.51C175.002 311.854 174.236 311.265 173.42 310.75L172.8 310.38L172.6 310.25L172.82 310.35L173.45 310.69C174.285 311.189 175.068 311.768 175.79 312.42H175.73L179.08 311.2H179.14V311.26L182.32 316.26V316.33L182.26 316.4L179.75 318.93V318.81C180.146 320.05 180.372 321.339 180.42 322.64L180.35 322.53L183.58 324.05L183.68 324.1V324.21C183.28 326.03 182.85 327.94 182.4 329.97V330.09H178.71L178.85 330.01C178.248 331.165 177.495 332.234 176.61 333.19V333.03C177 334.13 177.41 335.25 177.81 336.39L177.86 336.52L177.74 336.59L172.74 339.75L172.62 339.83L172.52 339.73L169.99 337.21H170.17C168.926 337.605 167.634 337.83 166.33 337.88L166.48 337.78C165.98 338.84 165.48 339.92 164.95 341L164.89 341.13H164.75L158.99 339.84H158.85V336C159.04 336.32 158.85 336.09 158.95 336.16C157.794 335.56 156.725 334.806 155.77 333.92H155.95L152.59 335.11L152.45 335.16L152.38 335.04L149.22 330.04L149.14 329.92L149.24 329.82L151.76 327.29V327.47C151.369 326.225 151.144 324.934 151.09 323.63L151.19 323.77L148 322.29L147.88 322.23V322.1L149.18 316.34V316.21H153L152.87 316.29C153.471 315.138 154.225 314.071 155.11 313.12V313.27L153.92 309.9V309.79L154.02 309.73L159.02 306.58L159.11 306.53L159.19 306.6L161.71 309.13H161.59C162.828 308.743 164.113 308.524 165.41 308.48L165.32 308.54L166.87 305.32V305.25H166.94L172.69 306.58H172.74C172.74 307.73 172.74 308.58 172.74 309.23C172.74 309.52 172.74 309.75 172.74 309.91C172.7 310.007 172.653 310.1 172.6 310.19Z" fill="#263238"/>
<path fill-rule="evenodd" clip-rule="evenodd" d="M161.72 265.33C162.983 265.99 164.153 266.813 165.2 267.78L168.92 266.46L172.41 271.97L169.63 274.77C170.056 276.132 170.302 277.544 170.36 278.97L173.92 280.66L172.49 287H168.55C167.887 288.263 167.06 289.433 166.09 290.48L167.42 294.2L161.9 297.69L159.1 295C157.741 295.425 156.333 295.671 154.91 295.73L153.22 299.29L146.85 297.86V293.92C145.586 293.259 144.415 292.431 143.37 291.46L139.65 292.79L136.15 287.27L138.94 284.48C138.515 283.118 138.27 281.706 138.21 280.28L134.65 278.59L136.07 272.22H140C140.657 270.956 141.481 269.785 142.45 268.74L141.14 265L146.65 261.5L149.45 264.29C150.812 263.864 152.224 263.618 153.65 263.56L155.34 260L161.71 261.43V265.37L161.72 265.33ZM156.1 272.83C154.749 272.528 153.339 272.633 152.048 273.131C150.757 273.63 149.643 274.501 148.847 275.632C148.05 276.764 147.607 278.107 147.573 279.49C147.54 280.874 147.917 282.237 148.657 283.406C149.398 284.575 150.468 285.499 151.733 286.06C152.998 286.621 154.402 286.795 155.765 286.558C157.129 286.322 158.392 285.687 159.395 284.734C160.398 283.78 161.096 282.55 161.4 281.2C161.602 280.302 161.626 279.374 161.469 278.467C161.312 277.56 160.978 276.694 160.485 275.916C159.993 275.139 159.352 274.466 158.6 273.937C157.847 273.407 156.998 273.031 156.1 272.83Z" fill="#3271FC"/>
<g opacity="0.8">
<path opacity="0.8" fill-rule="evenodd" clip-rule="evenodd" d="M161.72 265.33C162.983 265.99 164.153 266.813 165.2 267.78L168.92 266.46L172.41 271.97L169.63 274.77C170.056 276.132 170.302 277.544 170.36 278.97L173.92 280.66L172.49 287H168.55C167.887 288.263 167.06 289.433 166.09 290.48L167.42 294.2L161.9 297.69L159.1 295C157.741 295.425 156.333 295.671 154.91 295.73L153.22 299.29L146.85 297.86V293.92C145.586 293.259 144.415 292.431 143.37 291.46L139.65 292.79L136.15 287.27L138.94 284.48C138.515 283.118 138.27 281.706 138.21 280.28L134.65 278.59L136.07 272.22H140C140.657 270.956 141.481 269.785 142.45 268.74L141.14 265L146.65 261.5L149.45 264.29C150.812 263.864 152.224 263.618 153.65 263.56L155.34 260L161.71 261.43V265.37L161.72 265.33ZM156.1 272.83C154.749 272.528 153.339 272.633 152.048 273.131C150.757 273.63 149.643 274.501 148.847 275.632C148.05 276.764 147.607 278.107 147.573 279.49C147.54 280.874 147.917 282.237 148.657 283.406C149.398 284.575 150.468 285.499 151.733 286.06C152.998 286.621 154.402 286.795 155.765 286.558C157.129 286.322 158.392 285.687 159.395 284.734C160.398 283.78 161.096 282.55 161.4 281.2C161.602 280.302 161.626 279.374 161.469 278.467C161.312 277.56 160.978 276.694 160.485 275.916C159.993 275.139 159.352 274.466 158.6 273.937C157.847 273.407 156.998 273.031 156.1 272.83Z" fill="white"/>
</g>
<path fill-rule="evenodd" clip-rule="evenodd" d="M138.68 302.87C139.406 303.253 140.079 303.73 140.68 304.29L142.85 303.52L144.85 306.73L143.23 308.36C143.48 309.151 143.624 309.971 143.66 310.8L145.73 311.8L145 315.5H142.7C142.315 316.225 141.838 316.898 141.28 317.5L142.05 319.66L138.83 321.66L137.21 320.04C136.415 320.286 135.591 320.427 134.76 320.46L133.76 322.54L130.05 321.7V319.41C129.322 319.025 128.649 318.544 128.05 317.98L125.88 318.75L123.88 315.54L125.5 313.91C125.254 313.119 125.112 312.298 125.08 311.47L123 310.47L123.83 306.76H126C126.389 306.035 126.87 305.363 127.43 304.76L126.66 302.6L129.87 300.6L131.5 302.23C132.29 301.975 133.111 301.831 133.94 301.8L134.94 299.73L138.65 300.56V302.86L138.68 302.87ZM135.41 307.23C134.623 307.052 133.8 307.111 133.046 307.4C132.292 307.69 131.641 308.196 131.176 308.856C130.71 309.515 130.45 310.298 130.43 311.105C130.409 311.912 130.629 312.708 131.06 313.39C131.492 314.072 132.116 314.611 132.854 314.939C133.592 315.266 134.411 315.367 135.206 315.229C136.002 315.091 136.739 314.72 137.323 314.163C137.908 313.606 138.314 312.888 138.49 312.1C138.726 311.046 138.534 309.941 137.957 309.028C137.379 308.115 136.463 307.469 135.41 307.23Z" fill="#3271FC"/>
<g opacity="0.4">
<path opacity="0.4" fill-rule="evenodd" clip-rule="evenodd" d="M138.68 302.87C139.406 303.253 140.079 303.73 140.68 304.29L142.85 303.52L144.85 306.73L143.23 308.36C143.48 309.151 143.624 309.971 143.66 310.8L145.73 311.8L145 315.5H142.7C142.315 316.225 141.838 316.898 141.28 317.5L142.05 319.66L138.83 321.66L137.21 320.04C136.415 320.286 135.591 320.427 134.76 320.46L133.76 322.54L130.05 321.7V319.41C129.322 319.025 128.649 318.544 128.05 317.98L125.88 318.75L123.88 315.54L125.5 313.91C125.254 313.119 125.112 312.298 125.08 311.47L123 310.47L123.83 306.76H126C126.389 306.035 126.87 305.363 127.43 304.76L126.66 302.6L129.87 300.6L131.5 302.23C132.29 301.975 133.111 301.831 133.94 301.8L134.94 299.73L138.65 300.56V302.86L138.68 302.87ZM135.41 307.23C134.623 307.052 133.8 307.111 133.046 307.4C132.292 307.69 131.641 308.196 131.176 308.856C130.71 309.515 130.45 310.298 130.43 311.105C130.409 311.912 130.629 312.708 131.06 313.39C131.492 314.072 132.116 314.611 132.854 314.939C133.592 315.266 134.411 315.367 135.206 315.229C136.002 315.091 136.739 314.72 137.323 314.163C137.908 313.606 138.314 312.888 138.49 312.1C138.726 311.046 138.534 309.941 137.957 309.028C137.379 308.115 136.463 307.469 135.41 307.23Z" fill="white"/>
</g>
<path d="M359.53 266.07C361.627 265.467 363.463 264.179 364.744 262.412C366.025 260.646 366.678 258.501 366.6 256.32C366.48 254.32 365.75 252.46 365.83 250.5C365.96 247.5 367.98 244.89 369.5 242.25C371.02 239.61 372.03 236.14 370.26 233.66C369.12 232.05 367.09 231.33 365.7 229.93C364.31 228.53 363.7 226.66 362.96 224.87C362.22 223.08 361.29 221.23 359.61 220.28C357.93 219.33 355.36 219.74 354.67 221.55" fill="#263238"/>
<path d="M341.37 216.74C344.37 214.83 345.09 210.42 343.46 207.27C341.83 204.12 338.39 202.2 334.89 201.63C332.343 201.243 329.741 201.463 327.296 202.273C324.851 203.083 322.632 204.459 320.82 206.29C318.89 208.29 317.32 210.88 314.7 211.79C312.4 212.6 309.85 211.87 307.43 212.19C305.816 212.482 304.288 213.131 302.958 214.089C301.627 215.048 300.528 216.292 299.74 217.73C298.191 220.623 297.261 223.808 297.01 227.08C296.66 230.08 296.42 233.33 294.36 235.5C292.3 237.67 289.15 238.07 286.65 239.58C284.347 241.098 282.73 243.456 282.143 246.15C281.556 248.845 282.047 251.662 283.51 254C284.51 255.44 285.93 256.77 286.04 258.52C286.15 260.27 285.12 261.52 284.63 263.08C284.378 264.066 284.34 265.095 284.519 266.097C284.698 267.099 285.09 268.051 285.668 268.889C286.246 269.726 286.997 270.431 287.87 270.953C288.743 271.476 289.719 271.806 290.73 271.92C292.81 272.04 295.03 271.23 296.9 272.16C298.77 273.09 299.44 275.32 300.62 277.02C301.838 278.66 303.582 279.832 305.56 280.341C307.538 280.851 309.631 280.667 311.49 279.82C313.02 279.07 314.49 277.82 316.16 277.95C317.83 278.08 319.16 279.51 320.86 279.83C323.05 280.25 325.12 278.64 326.42 276.83C327.72 275.02 328.63 272.89 330.29 271.41C332.47 269.47 335.53 269 338.29 268.05C341.34 266.996 344.128 265.299 346.466 263.075C348.804 260.851 350.637 258.15 351.842 255.157C353.047 252.163 353.595 248.946 353.45 245.722C353.305 242.498 352.469 239.343 351 236.47" fill="#263238"/>
<path d="M348 220.67C349.192 220.8 350.292 221.372 351.083 222.274C351.873 223.176 352.297 224.341 352.27 225.54L349.41 290.21C349.29 297.85 338.13 302.14 329.95 301.95C321.69 301.76 321.43 297.71 321.32 290.44C321.15 278.3 321.17 273.74 321.16 273.81C321.15 273.88 310.73 272.06 308.6 258.44C307.54 251.66 307.9 240.56 308.49 231.49C309.03 223.32 314.49 213.31 322.6 214.19L348 220.67Z" fill="#8D5B42"/>
<path d="M311.44 240.3C311.437 240.755 311.61 241.193 311.923 241.523C312.237 241.853 312.665 242.049 313.12 242.07C313.342 242.088 313.565 242.061 313.776 241.991C313.988 241.921 314.183 241.81 314.35 241.664C314.518 241.518 314.655 241.339 314.753 241.139C314.851 240.94 314.907 240.722 314.92 240.5C314.928 240.045 314.758 239.605 314.446 239.275C314.134 238.944 313.704 238.748 313.25 238.73C313.028 238.712 312.804 238.739 312.592 238.809C312.38 238.878 312.184 238.989 312.016 239.136C311.847 239.282 311.71 239.46 311.611 239.66C311.512 239.86 311.454 240.077 311.44 240.3Z" fill="#263238"/>
<path d="M310.84 237.27C311.06 237.5 312.38 236.52 314.26 236.53C316.14 236.54 317.51 237.48 317.72 237.25C317.93 237.02 317.6 236.74 317 236.3C316.188 235.734 315.22 235.433 314.23 235.44C313.254 235.432 312.3 235.737 311.51 236.31C310.93 236.75 310.73 237.17 310.84 237.27Z" fill="#263238"/>
<path d="M330.17 240.3C330.167 240.755 330.34 241.193 330.653 241.523C330.967 241.853 331.396 242.049 331.85 242.07C332.072 242.088 332.295 242.061 332.506 241.991C332.717 241.921 332.913 241.81 333.08 241.664C333.248 241.518 333.385 241.339 333.483 241.139C333.58 240.94 333.637 240.722 333.65 240.5C333.658 240.044 333.487 239.602 333.172 239.271C332.858 238.94 332.426 238.746 331.97 238.73C331.748 238.712 331.525 238.739 331.314 238.809C331.102 238.879 330.907 238.99 330.74 239.136C330.572 239.282 330.435 239.461 330.337 239.661C330.24 239.86 330.183 240.078 330.17 240.3Z" fill="#263238"/>
<path d="M329.31 237.66C329.53 237.89 330.85 236.91 332.73 236.92C334.61 236.93 335.98 237.92 336.19 237.64C336.4 237.36 336.07 237.13 335.47 236.69C334.658 236.124 333.69 235.824 332.7 235.83C331.724 235.827 330.773 236.131 329.98 236.7C329.4 237.15 329.2 237.56 329.31 237.66Z" fill="#263238"/>
<path d="M322.46 251.58C321.487 251.271 320.479 251.082 319.46 251.02C318.98 250.97 318.52 250.87 318.46 250.55C318.421 250.054 318.536 249.558 318.79 249.13C319.24 247.97 319.72 246.75 320.21 245.48C322.21 240.28 323.63 236 323.42 235.93C323.21 235.86 321.42 240 319.42 245.19C318.95 246.48 318.49 247.7 318.06 248.87C317.752 249.446 317.66 250.112 317.8 250.75C317.869 250.92 317.976 251.071 318.113 251.192C318.25 251.314 318.413 251.402 318.59 251.45C318.857 251.524 319.133 251.565 319.41 251.57C320.422 251.699 321.447 251.702 322.46 251.58Z" fill="#263238"/>
<path d="M321.11 273.81C327.521 273.925 333.838 272.26 339.36 269C339.36 269 334.74 278.6 321.11 277.29V273.81Z" fill="#6C4834"/>
<path d="M323.24 256.11C323.596 255.668 324.057 255.322 324.581 255.103C325.105 254.885 325.675 254.801 326.24 254.86C326.655 254.896 327.058 255.017 327.424 255.215C327.79 255.412 328.112 255.683 328.37 256.01C328.616 256.326 328.762 256.708 328.789 257.107C328.816 257.506 328.722 257.904 328.52 258.25C328.215 258.585 327.818 258.823 327.379 258.933C326.939 259.043 326.477 259.021 326.05 258.87C325.165 258.549 324.35 258.06 323.65 257.43C323.444 257.274 323.264 257.085 323.12 256.87C323.051 256.766 323.014 256.645 323.014 256.52C323.014 256.395 323.051 256.274 323.12 256.17" fill="#3271FC"/>
<path d="M328 252.89C327.69 252.89 327.68 254.89 325.93 256.36C324.18 257.83 322.01 257.57 322 257.86C322 257.98 322.48 258.25 323.4 258.28C324.594 258.304 325.758 257.9 326.68 257.14C327.571 256.419 328.145 255.378 328.28 254.24C328.35 253.39 328.12 252.88 328 252.89Z" fill="#263238"/>
<path d="M328.47 234.37C328.65 234.88 330.53 234.64 332.73 234.91C334.93 235.18 336.73 235.79 337.01 235.33C337.15 235.11 336.84 234.63 336.12 234.13C335.16 233.526 334.076 233.146 332.949 233.02C331.821 232.894 330.68 233.024 329.61 233.4C328.8 233.72 328.39 234.13 328.47 234.37Z" fill="#263238"/>
<path d="M311.54 231.83C311.87 232.26 313.17 231.83 314.72 231.83C316.27 231.83 317.6 232.12 317.9 231.68C318.04 231.46 317.83 231.03 317.25 230.63C316.479 230.141 315.58 229.894 314.667 229.92C313.754 229.947 312.871 230.246 312.13 230.78C311.58 231.18 311.4 231.62 311.54 231.83Z" fill="#263238"/>
<path d="M339 216.24C340.551 215.154 342.316 214.414 344.178 214.069C346.039 213.723 347.953 213.782 349.79 214.24C353.42 215.24 356.43 218.56 356.56 222.24C356.64 224.64 355.56 227.24 356.67 229.37C357.78 231.5 360.18 232.27 361.96 233.77C363.324 234.962 364.25 236.577 364.591 238.356C364.931 240.136 364.667 241.978 363.84 243.59C362.35 246.32 359.23 248.32 358.97 251.4C358.72 254.3 361.16 256.75 361.76 259.6C362.41 262.74 360.67 265.99 358.18 268.08C355.69 270.17 352.53 271.32 349.45 272.42C347.05 273.29 344.45 274.17 341.98 273.6C340.521 273.208 339.21 272.393 338.214 271.258C337.217 270.123 336.579 268.718 336.38 267.22C336.231 265.727 336.407 264.219 336.896 262.8C337.384 261.382 338.174 260.085 339.21 259C340.96 257.07 343.42 255.44 343.84 252.89C344.49 248.89 339.77 245.68 340.06 241.68C340.21 239.62 341.67 237.91 342.88 236.21C344.09 234.51 345.15 232.38 344.4 230.45C343.4 227.93 340.13 227.27 338.13 225.45C337.306 224.674 336.713 223.685 336.418 222.592C336.123 221.499 336.138 220.345 336.46 219.26C336.824 218.176 337.476 217.212 338.346 216.47C339.216 215.728 340.272 215.237 341.4 215.05" fill="#263238"/>
<path d="M340.47 213.17C340.477 214.54 340.181 215.894 339.604 217.136C339.027 218.378 338.184 219.478 337.133 220.356C336.082 221.235 334.851 221.871 333.526 222.219C332.202 222.567 330.817 222.619 329.47 222.37C327.39 221.99 325.11 220.94 323.31 222.05C321.51 223.16 321.31 226.05 319.66 227.52C317.26 229.61 313.45 227.65 310.4 228.52C308.05 229.22 306.58 231.46 305.01 233.36C303.44 235.26 301.11 237.05 298.75 236.36C298.821 234.238 299.136 232.13 299.69 230.08C300.253 228.018 301.511 226.213 303.25 224.97C304.279 224.434 305.28 223.847 306.25 223.21C308.25 221.64 308.66 218.89 309.86 216.69C310.654 215.274 311.773 214.067 313.126 213.17C314.479 212.272 316.027 211.71 317.64 211.53C320.32 211.26 323.08 212.06 325.64 211.4C327.57 210.92 329.26 209.67 331.21 209.29C335.02 208.57 338.56 211.29 341.32 214.02" fill="#263238"/>
<path d="M365.34 245.72C365.591 245.237 365.698 244.692 365.65 244.15C365.527 243.422 365.205 242.743 364.719 242.187C364.234 241.631 363.604 241.22 362.9 241C361.922 240.654 360.919 240.383 359.9 240.19C358.683 239.969 357.528 239.492 356.51 238.79C355.966 238.351 355.527 237.796 355.222 237.167C354.918 236.538 354.757 235.849 354.75 235.15C354.735 233.72 354.805 232.291 354.96 230.87C355 230.168 354.963 229.464 354.85 228.77C354.719 228.122 354.446 227.51 354.05 226.98C353.154 226.059 352.018 225.407 350.77 225.1C349.6 224.765 348.477 224.281 347.43 223.66C346.519 223.114 345.69 222.441 344.97 221.66C343.918 220.541 343.101 219.221 342.57 217.78C342.418 217.395 342.301 216.996 342.22 216.59C342.16 216.31 342.14 216.17 342.16 216.16C342.18 216.15 342.34 216.73 342.75 217.71C343.487 219.418 344.607 220.934 346.024 222.139C347.44 223.344 349.116 224.207 350.92 224.66C352.26 224.977 353.482 225.671 354.44 226.66C354.891 227.25 355.206 227.933 355.36 228.66C355.48 229.394 355.52 230.138 355.48 230.88C355.331 232.285 355.257 233.697 355.26 235.11C355.259 235.74 355.397 236.363 355.665 236.934C355.933 237.504 356.324 238.008 356.81 238.41C357.768 239.076 358.855 239.536 360 239.76C361.022 239.977 362.025 240.274 363 240.65C363.839 240.971 364.573 241.518 365.12 242.23C365.517 242.778 365.756 243.425 365.81 244.1C365.837 244.528 365.75 244.956 365.56 245.34C365.47 245.62 365.35 245.73 365.34 245.72Z" fill="#455A64"/>
<path d="M285.15 254.22L284.92 254.11C284.714 253.981 284.539 253.806 284.41 253.6C284.221 253.166 284.147 252.69 284.196 252.218C284.246 251.747 284.416 251.296 284.69 250.91C285.03 250.311 285.537 249.824 286.15 249.51C286.86 249.157 287.591 248.85 288.34 248.59C289.18 248.309 289.958 247.868 290.63 247.29C291.311 246.578 291.767 245.68 291.94 244.71C292.16 243.71 292.23 242.57 292.42 241.41C292.563 240.165 293.028 238.98 293.77 237.97C295.35 235.89 297.95 234.78 299.89 232.82C300.858 231.789 301.586 230.556 302.02 229.21C302.482 227.789 302.817 226.33 303.02 224.85C303.44 221.85 303.87 218.51 305.88 215.77C306.86 214.393 308.331 213.445 309.99 213.12C311.565 212.895 313.167 212.932 314.73 213.23C316.189 213.513 317.678 213.6 319.16 213.49C320.554 213.329 321.841 212.664 322.78 211.62C324.64 209.62 325.7 206.92 327.99 205.54C329.01 204.918 330.147 204.512 331.331 204.349C332.515 204.185 333.719 204.267 334.87 204.59C336.776 205.133 338.397 206.395 339.39 208.11C340.14 209.384 340.547 210.831 340.57 212.31C340.597 213.236 340.451 214.158 340.14 215.03C340.036 215.338 339.899 215.633 339.73 215.91C339.73 215.91 339.85 215.6 340.04 215C340.301 214.132 340.413 213.226 340.37 212.32C340.313 210.885 339.893 209.489 339.15 208.26C338.172 206.632 336.603 205.446 334.77 204.95C333.668 204.659 332.518 204.598 331.391 204.77C330.264 204.942 329.185 205.344 328.22 205.95C327.172 206.67 326.278 207.591 325.59 208.66C324.844 209.823 324.023 210.936 323.13 211.99C322.628 212.538 322.04 213 321.39 213.36C320.711 213.707 319.977 213.934 319.22 214.03C317.696 214.147 316.163 214.063 314.66 213.78C313.154 213.49 311.61 213.449 310.09 213.66C308.56 213.969 307.205 214.849 306.3 216.12C305.389 217.409 304.727 218.857 304.35 220.39C303.99 221.9 303.712 223.429 303.52 224.97C303.322 226.477 302.987 227.963 302.52 229.41C302.061 230.824 301.288 232.116 300.26 233.19C298.21 235.19 295.64 236.31 294.14 238.28C293.437 239.228 292.99 240.34 292.84 241.51C292.65 242.65 292.57 243.77 292.32 244.83C292.131 245.869 291.629 246.825 290.88 247.57C290.173 248.169 289.353 248.621 288.47 248.9C287.726 249.145 286.998 249.435 286.29 249.77C285.712 250.057 285.227 250.5 284.89 251.05C284.625 251.411 284.453 251.832 284.39 252.275C284.328 252.718 284.376 253.17 284.53 253.59C284.695 253.837 284.905 254.051 285.15 254.22Z" fill="#455A64"/>
<path d="M251.74 348L275.89 345.79C275.89 345.79 290.75 306.64 309.07 297.15L320.94 317.88L295.53 365.61H245.93L251.74 348Z" fill="#3271FC"/>
<path opacity="0.3" d="M251.74 348L275.89 345.79C275.89 345.79 290.75 306.64 309.07 297.15L320.94 317.88L295.53 365.61H245.93L251.74 348Z" fill="black"/>
<path d="M261.28 359C262.473 356.305 263.991 353.766 265.8 351.44C264.591 354.126 263.074 356.663 261.28 359Z" fill="#FAFAFA"/>
<path d="M278.39 358.53C276.294 356.478 274.448 354.186 272.89 351.7C274.007 352.654 274.998 353.746 275.84 354.95C276.826 356.041 277.681 357.242 278.39 358.53Z" fill="#FAFAFA"/>
<path d="M281.36 349.56C281.013 347.461 281.013 345.319 281.36 343.22C281.707 345.319 281.707 347.461 281.36 349.56Z" fill="#FAFAFA"/>
<path d="M272.86 363.55C272.017 363.315 271.231 362.91 270.55 362.36C269.35 361.57 268.45 360.84 268.55 360.72C269.39 360.967 270.175 361.374 270.86 361.92C272 362.7 272.94 363.43 272.86 363.55Z" fill="#FAFAFA"/>
<path d="M286.73 327.57C286.334 329.08 285.774 330.542 285.06 331.93C284.502 333.388 283.785 334.78 282.92 336.08C283.304 334.568 283.861 333.105 284.58 331.72C285.143 330.263 285.864 328.871 286.73 327.57Z" fill="#FAFAFA"/>
<path d="M296.52 311.71C296.6 311.82 295.74 312.62 294.59 313.5C293.936 314.098 293.172 314.563 292.34 314.87C292.26 314.75 293.12 313.95 294.27 313.08C294.921 312.478 295.686 312.012 296.52 311.71Z" fill="#FAFAFA"/>
<path d="M332.64 362.47L345.1 312.16C346.142 307.939 348.753 304.273 352.401 301.909C356.049 299.544 360.461 298.657 364.74 299.43C369.135 300.225 373.046 302.706 375.639 306.343C378.232 309.98 379.301 314.486 378.62 318.9L371 368.07C370.09 373.102 367.635 377.726 363.975 381.298C360.315 384.87 355.633 387.213 350.58 388L340.68 389.54L332.64 362.47Z" fill="#3271FC"/>
<path d="M371.9 296.18C370.6 295.116 369.08 294.355 367.45 293.95C365.687 293.54 363.853 293.54 362.09 293.95C359.943 294.492 357.949 295.518 356.26 296.95C352.61 300.01 350.63 303.95 349.26 306.77C348.59 308.18 348.08 309.34 347.72 310.14C347.554 310.568 347.35 310.979 347.11 311.37C347.208 310.924 347.349 310.489 347.53 310.07C347.84 309.24 348.29 308.07 348.92 306.61C349.659 304.916 350.514 303.275 351.48 301.7C352.68 299.763 354.175 298.026 355.91 296.55C357.654 295.051 359.727 293.986 361.96 293.44C363.793 293.023 365.698 293.047 367.52 293.51C368.743 293.824 369.892 294.379 370.9 295.14C371.169 295.349 371.42 295.58 371.65 295.83C371.83 296.08 371.91 296.17 371.9 296.18Z" fill="#263238"/>
<path d="M301.33 307.5C301.231 307.669 301.114 307.827 300.98 307.97L299.92 309.25C298.99 310.36 297.68 311.98 296.18 314.07C292.193 319.478 289.302 325.613 287.67 332.13C285.94 339.8 285.85 346.98 285.56 352.13C285.43 354.71 285.31 356.8 285.2 358.24C285.14 358.92 285.09 359.47 285.05 359.9C285.038 360.095 285.011 360.289 284.97 360.48C284.942 360.288 284.942 360.092 284.97 359.9C284.97 359.46 284.97 358.9 285.02 358.23C285.02 356.72 285.13 354.65 285.21 352.12C285.41 346.98 285.43 339.77 287.21 332.02C288.844 325.439 291.808 319.262 295.92 313.87C297.47 311.79 298.83 310.19 299.8 309.12C300.28 308.58 300.68 308.18 300.94 307.91C301.057 307.762 301.188 307.625 301.33 307.5Z" fill="#263238"/>
<path d="M381.15 307.39C379.78 298.39 374.82 296.24 369.67 293.44C367.99 292.52 359.88 290.44 353.45 288.87C352.83 284.98 351.73 278 351.45 276.53C351.11 274.46 318.69 279.63 318.28 280.41C318.01 280.92 317.28 289 316.79 294.41L309.03 297.12L298.94 310L293.67 317.48C290.565 321.795 288.345 326.682 287.14 331.86C286.008 337.594 285.521 343.437 285.69 349.28L284.12 382.28L352 401.46L357.2 368L374.7 344.18C376.19 334.55 382.83 318.45 381.15 307.39Z" fill="#3271FC"/>
<path d="M323.26 295.42C323.023 294.676 322.872 293.908 322.81 293.13C322.6 291.71 322.34 289.74 322.09 287.56C321.97 286.48 321.86 285.45 321.75 284.48C321.647 283.637 321.587 282.789 321.57 281.94C321.561 281.34 321.731 280.752 322.06 280.25C322.32 279.91 322.54 279.82 322.56 279.84C322.58 279.86 322.41 280.02 322.23 280.36C322.003 280.854 321.904 281.397 321.94 281.94C321.94 282.64 322.12 283.48 322.23 284.43C322.34 285.38 322.47 286.43 322.61 287.5C322.86 289.68 323.06 291.66 323.18 293.09C323.296 293.861 323.323 294.643 323.26 295.42Z" fill="#263238"/>
<path d="M331.91 293.38C331.573 292.717 331.33 292.01 331.19 291.28C330.285 287.817 329.948 284.231 330.19 280.66C330.197 279.919 330.304 279.182 330.51 278.47C330.67 278.47 330.38 281.84 330.77 285.96C331.16 290.08 332.07 293.34 331.91 293.38Z" fill="#263238"/>
<path d="M348 291C348.205 288.514 348.141 286.013 347.81 283.54C347.299 281.096 346.515 278.718 345.47 276.45C345.973 277.007 346.375 277.646 346.66 278.34C348.254 281.592 348.885 285.231 348.48 288.83C348.433 289.574 348.271 290.306 348 291Z" fill="#263238"/>
<path d="M302 320.46C303.545 317.515 305.554 314.837 307.95 312.53C306.097 315.269 304.111 317.915 302 320.46Z" fill="#FAFAFA"/>
<path d="M317.23 308C315.29 306.051 313.61 303.859 312.23 301.48C313.248 302.402 314.151 303.443 314.92 304.58C315.83 305.619 316.607 306.768 317.23 308Z" fill="#FAFAFA"/>
<path d="M333.19 300.22C332.214 301.379 331.147 302.459 330 303.45C328.976 304.568 327.87 305.608 326.69 306.56C327.495 305.26 328.489 304.087 329.64 303.08C330.671 301.951 331.868 300.987 333.19 300.22Z" fill="#FAFAFA"/>
<path d="M328.71 290.7C327.779 290.211 326.937 289.569 326.22 288.8C325.384 288.154 324.658 287.378 324.07 286.5C324.999 287 325.843 287.645 326.57 288.41C327.403 289.051 328.126 289.825 328.71 290.7Z" fill="#FAFAFA"/>
<path d="M342.7 283.24C341.633 283.739 340.497 284.077 339.33 284.24C338.202 284.566 337.034 284.728 335.86 284.72C336.925 284.225 338.057 283.888 339.22 283.72C340.351 283.394 341.523 283.232 342.7 283.24Z" fill="#FAFAFA"/>
<path d="M345.5 305.39C345.179 304.255 345.031 303.079 345.06 301.9C344.916 300.732 344.943 299.55 345.14 298.39C345.461 299.525 345.609 300.701 345.58 301.88C345.724 303.048 345.697 304.23 345.5 305.39Z" fill="#FAFAFA"/>
<path d="M340.4 316C339.659 314.74 339.068 313.398 338.64 312C338.06 310.643 337.637 309.224 337.38 307.77C338.695 310.402 339.702 313.177 340.38 316.04L340.4 316Z" fill="#FAFAFA"/>
<path d="M326.54 323.55C325.744 322.216 325.1 320.797 324.62 319.32C323.972 317.903 323.489 316.417 323.18 314.89C323.97 316.23 324.614 317.652 325.1 319.13C325.741 320.546 326.223 322.028 326.54 323.55Z" fill="#FAFAFA"/>
<path d="M313.5 332.06C312.576 329.315 311.992 326.467 311.76 323.58C312.298 324.927 312.674 326.334 312.88 327.77C313.255 329.171 313.463 330.611 313.5 332.06Z" fill="#FAFAFA"/>
<path d="M298 332.4C296.459 330.011 295.21 327.446 294.28 324.76C295.821 327.149 297.07 329.714 298 332.4Z" fill="#FAFAFA"/>
<path d="M297.67 342.34C296.401 343.243 295.04 344.011 293.61 344.63C292.25 345.399 290.807 346.013 289.31 346.46C290.578 345.546 291.943 344.774 293.38 344.16C294.738 343.395 296.177 342.785 297.67 342.34Z" fill="#FAFAFA"/>
<path d="M297.86 358.06C297.181 356.935 296.704 355.7 296.45 354.41C296.029 353.171 295.829 351.868 295.86 350.56C296.34 351.763 296.705 353.008 296.95 354.28C297.371 355.509 297.675 356.774 297.86 358.06Z" fill="#FAFAFA"/>
<path d="M294.65 369.1C293.465 368.349 292.371 367.463 291.39 366.46C290.296 365.588 289.319 364.58 288.48 363.46C289.665 364.21 290.759 365.096 291.74 366.1C292.834 366.972 293.811 367.98 294.65 369.1Z" fill="#FAFAFA"/>
<path d="M315.07 361.56C315.07 361.71 312.81 362.37 310.13 363.56C307.45 364.75 305.41 365.97 305.32 365.84C306.685 364.665 308.241 363.732 309.92 363.08C311.536 362.279 313.278 361.765 315.07 361.56Z" fill="#FAFAFA"/>
<path d="M309.1 356.09C308.456 355.019 307.961 353.865 307.63 352.66C307.13 351.516 306.794 350.308 306.63 349.07C307.272 350.137 307.763 351.288 308.09 352.49C308.596 353.636 308.936 354.848 309.1 356.09Z" fill="#FAFAFA"/>
<path d="M321.21 342.57C320.455 344.263 319.541 345.88 318.48 347.4C317.565 349.029 316.5 350.569 315.3 352C316.976 348.698 318.955 345.558 321.21 342.62V342.57Z" fill="#FAFAFA"/>
<path d="M334.23 343.86C332.913 342.51 331.792 340.982 330.9 339.32C329.859 337.75 329.038 336.044 328.46 334.25C328.6 334.19 329.76 336.41 331.35 339.06C332.94 341.71 334.35 343.78 334.23 343.86Z" fill="#FAFAFA"/>
<path d="M342 331C340.787 331.475 339.492 331.706 338.19 331.68C336.899 331.831 335.592 331.729 334.34 331.38C335.609 331.211 336.89 331.138 338.17 331.16C339.441 331.015 340.721 330.961 342 331Z" fill="#FAFAFA"/>
<path d="M360.53 316.39C357.357 318.298 354.008 319.899 350.53 321.17C353.709 319.272 357.057 317.672 360.53 316.39Z" fill="#FAFAFA"/>
<path d="M361.76 307.09C362.78 304.278 364.122 301.593 365.76 299.09C365.337 300.524 364.746 301.904 364 303.2C363.404 304.578 362.652 305.883 361.76 307.09Z" fill="#FAFAFA"/>
<path d="M373.52 314.39C372.905 312.912 372.397 311.391 372 309.84C371.443 308.341 370.995 306.804 370.66 305.24C372.155 308.094 373.124 311.193 373.52 314.39Z" fill="#FAFAFA"/>
<path d="M375.37 324.07C373.995 324.821 372.515 325.36 370.98 325.67C369.486 326.145 367.928 326.385 366.36 326.38C367.827 325.874 369.327 325.47 370.85 325.17C372.33 324.701 373.84 324.334 375.37 324.07Z" fill="#FAFAFA"/>
<path d="M355.21 335.89C355.06 335.89 355.49 333.43 355.61 330.4C355.73 327.37 355.53 324.91 355.68 324.89C356.142 326.695 356.294 328.564 356.13 330.42C356.14 332.283 355.828 334.133 355.21 335.89Z" fill="#FAFAFA"/>
<path d="M351.19 348.06C348.5 345.928 346.286 343.258 344.69 340.22C344.82 340.14 346.14 341.99 347.94 344.15C349.092 345.395 350.177 346.7 351.19 348.06Z" fill="#FAFAFA"/>
<path d="M371.4 345.49C370.091 346.314 368.692 346.985 367.23 347.49C365.834 348.162 364.369 348.678 362.86 349.03C365.567 347.529 368.431 346.332 371.4 345.46V345.49Z" fill="#FAFAFA"/>
<path d="M364.16 368.39C363.857 364.728 363.893 361.045 364.27 357.39C364.587 361.052 364.55 364.735 364.16 368.39Z" fill="#FAFAFA"/>
<path d="M348.65 367.07C348.903 363.244 349.841 359.494 351.42 356C351.56 356.05 350.8 358.48 350.04 361.53C349.28 364.58 348.8 367.1 348.65 367.07Z" fill="#FAFAFA"/>
<path d="M349.36 373.08C349.36 373.23 346.88 373.47 343.84 373.98C340.8 374.49 338.36 375.05 338.32 374.9C340.055 374.172 341.882 373.687 343.75 373.46C345.593 373.069 347.481 372.941 349.36 373.08Z" fill="#FAFAFA"/>
<path d="M332.2 369.23C333.069 367.973 334.075 366.816 335.2 365.78C336.191 364.628 337.312 363.594 338.54 362.7C337.671 363.958 336.665 365.115 335.54 366.15C334.546 367.299 333.426 368.333 332.2 369.23Z" fill="#FAFAFA"/>
<path d="M321.09 380C320.56 378.726 320.11 377.42 319.74 376.09C319.198 374.819 318.73 373.516 318.34 372.19C319.926 374.507 320.874 377.201 321.09 380Z" fill="#FAFAFA"/>
<path d="M339 386.22C335.589 385.089 332.297 383.629 329.17 381.86C330.895 382.346 332.569 382.996 334.17 383.8C335.851 384.456 337.468 385.266 339 386.22Z" fill="#FAFAFA"/>
<path d="M307.76 384.41C307.9 383.152 308.217 381.92 308.7 380.75C309.016 379.527 309.497 378.353 310.13 377.26C309.989 378.518 309.672 379.75 309.19 380.92C308.866 382.14 308.386 383.313 307.76 384.41Z" fill="#FAFAFA"/>
<path d="M328.36 387.9C328.36 388.05 325.49 387.59 321.95 387.41C318.41 387.23 315.54 387.41 315.53 387.21C317.654 386.797 319.826 386.69 321.98 386.89C324.144 386.918 326.293 387.258 328.36 387.9Z" fill="#FAFAFA"/>
<path d="M332.64 358.41C332.621 358.277 332.621 358.143 332.64 358.01C332.638 357.627 332.695 357.246 332.81 356.88C332.966 356.263 333.352 355.73 333.89 355.39C334.627 354.963 335.495 354.821 336.33 354.99L336.13 355.11C337.22 351.27 338.97 345.67 340.72 339.39C342.36 333.51 343.47 328.1 344.24 324.17C344.62 322.28 344.92 320.71 345.16 319.52C345.25 318.948 345.381 318.383 345.55 317.83C345.538 318.411 345.474 318.99 345.36 319.56C345.2 320.67 344.94 322.27 344.6 324.24C343.734 329.391 342.606 334.494 341.22 339.53C339.47 345.82 337.66 351.4 336.46 355.21L336.41 355.36H336.26C335.505 355.188 334.713 355.294 334.03 355.66C333.534 355.956 333.161 356.421 332.98 356.97C332.65 357.85 332.71 358.42 332.64 358.41Z" fill="#263238"/>
<path d="M355.06 372.32C354.98 372.32 354.36 371 353.06 368.98C349.727 363.706 345.027 359.435 339.46 356.62C337.33 355.55 335.92 355.06 335.95 354.97C336.292 355.024 336.627 355.115 336.95 355.24C337.855 355.533 338.74 355.884 339.6 356.29C345.35 358.963 350.149 363.323 353.36 368.79C353.843 369.609 354.274 370.457 354.65 371.33C354.839 371.636 354.978 371.97 355.06 372.32Z" fill="#263238"/>
<g opacity="0.2">
<path opacity="0.2" d="M336.55 354.24C340.141 354.33 343.696 354.974 347.09 356.15C350.68 357.49 354 360.07 355.32 363.67C355.534 364.076 355.63 364.534 355.596 364.992C355.563 365.45 355.401 365.889 355.13 366.26C354.874 366.48 354.562 366.626 354.229 366.68C353.895 366.735 353.553 366.697 353.24 366.57C352.614 366.308 352.049 365.92 351.58 365.43C349.38 363.43 347.09 361.59 344.82 359.63C342.55 357.67 339.23 355.63 336.27 355.16" fill="black"/>
</g>
<path d="M329.34 347.86C329.034 348.102 328.698 348.304 328.34 348.46C327.355 348.942 326.327 349.331 325.27 349.62C321.752 350.624 318.029 350.668 314.488 349.749C310.946 348.829 307.715 346.979 305.13 344.39C304.35 343.619 303.64 342.779 303.01 341.88C302.76 341.575 302.552 341.239 302.39 340.88C302.47 340.82 303.39 342.28 305.39 344.16C307.987 346.613 311.162 348.371 314.62 349.27C318.078 350.168 321.707 350.179 325.17 349.3C327.78 348.6 329.29 347.76 329.34 347.86Z" fill="#263238"/>
<g opacity="0.2">
<path opacity="0.2" d="M302.88 341.62C304.57 345.28 306.54 348.97 309.74 351.43C311.509 352.958 313.72 353.883 316.05 354.07C319.39 354.13 322.26 351.85 324.81 349.69C316.55 350.99 307.25 347.24 302.88 341.62Z" fill="black"/>
</g>
<path d="M339.86 292.62C339.7 292.62 339.86 289.18 339.48 284.99C339.1 280.8 338.25 277.47 338.4 277.43C338.73 278.111 338.962 278.835 339.09 279.58C339.522 281.342 339.823 283.134 339.99 284.94C340.168 286.748 340.215 288.566 340.13 290.38C340.139 291.135 340.048 291.888 339.86 292.62Z" fill="#263238"/>
<path d="M221.24 426.44C221.24 426.44 210.37 428.79 200.67 427.33C191.57 425.97 171.2 427.38 171.21 439.33C171.21 452.7 198.38 449.4 208.97 447.28C219.56 445.16 230.12 443.28 230.12 443.28L221.24 426.44Z" fill="#3271FC"/>
<path d="M196.84 443.57C196.242 442.07 195.803 440.512 195.53 438.92C195.095 437.363 194.827 435.764 194.73 434.15C195.314 435.652 195.74 437.21 196 438.8C196.449 440.356 196.73 441.955 196.84 443.57Z" fill="#263238"/>
<path d="M200.55 443.75C199.764 440.6 199.321 437.375 199.23 434.13C199.707 435.682 200.015 437.282 200.15 438.9C200.452 440.498 200.586 442.124 200.55 443.75Z" fill="#263238"/>
<path d="M204.13 442.35C203.711 440.995 203.456 439.595 203.37 438.18C203.111 436.786 203.027 435.365 203.12 433.95C203.792 436.699 204.128 439.52 204.12 442.35H204.13Z" fill="#263238"/>
<path d="M209.75 441C209.054 439.91 208.582 438.694 208.36 437.42C207.97 436.183 207.834 434.881 207.96 433.59C208.342 434.802 208.643 436.038 208.86 437.29C209.244 438.504 209.542 439.744 209.75 441Z" fill="#263238"/>
<path d="M211 436.06C211.465 435.953 211.944 435.919 212.42 435.96C213.722 436.005 215.008 436.258 216.23 436.71C216.652 436.86 217.05 437.073 217.41 437.34C217.622 437.495 217.797 437.694 217.923 437.924C218.049 438.154 218.123 438.408 218.14 438.67C218.118 438.958 218.033 439.238 217.892 439.491C217.751 439.743 217.557 439.962 217.323 440.132C217.089 440.302 216.821 440.42 216.537 440.476C216.254 440.533 215.961 440.527 215.68 440.46C214.531 440.146 213.53 439.438 212.85 438.46C211.721 437.004 211.075 435.232 211.001 433.391C210.928 431.55 211.431 429.732 212.44 428.19C212.644 427.942 212.926 427.769 213.24 427.7C213.404 427.679 213.57 427.694 213.727 427.744C213.884 427.794 214.029 427.878 214.15 427.99C214.535 428.386 214.775 428.9 214.83 429.45C214.953 430.354 214.906 431.273 214.69 432.16C214.391 433.446 213.756 434.63 212.85 435.59C212.611 435.852 212.346 436.09 212.06 436.3C211.965 436.381 211.857 436.445 211.74 436.49C211.74 436.49 212.12 436.15 212.74 435.49C213.55 434.513 214.109 433.352 214.37 432.11C214.55 431.265 214.574 430.394 214.44 429.54C214.389 429.098 214.196 428.684 213.89 428.36C213.812 428.295 213.721 428.248 213.623 428.222C213.526 428.195 213.423 428.191 213.323 428.208C213.224 428.225 213.129 428.263 213.045 428.321C212.962 428.378 212.892 428.453 212.84 428.54C211.927 430.001 211.481 431.705 211.561 433.425C211.642 435.146 212.245 436.801 213.29 438.17C213.887 439.065 214.779 439.723 215.81 440.03C216.024 440.086 216.247 440.096 216.464 440.059C216.682 440.022 216.889 439.939 217.073 439.817C217.256 439.694 217.411 439.533 217.528 439.346C217.645 439.159 217.72 438.949 217.75 438.73C217.734 438.533 217.675 438.342 217.579 438.169C217.482 437.997 217.35 437.847 217.19 437.73C216.873 437.477 216.519 437.274 216.14 437.13C214.959 436.661 213.716 436.365 212.45 436.25C211.46 436.08 211 436.1 211 436.06Z" fill="#263238"/>
<path d="M229.05 441.51L228.78 441.6L227.96 441.8L224.81 442.52C222.07 443.12 218.09 443.97 213.15 444.92C208.21 445.87 202.31 446.92 195.69 447.85C192.224 448.419 188.705 448.597 185.2 448.38C183.334 448.254 181.491 447.902 179.71 447.33C178.795 447.02 177.911 446.624 177.07 446.15C176.191 445.679 175.407 445.049 174.76 444.29C174.398 443.957 174.082 443.577 173.82 443.16C173.31 442.283 172.996 441.306 172.901 440.296C172.807 439.285 172.932 438.267 173.27 437.31C173.924 435.463 175.141 433.868 176.75 432.75C178.264 431.684 179.934 430.857 181.7 430.3C182.57 430.05 183.41 429.75 184.27 429.56C185.13 429.37 185.98 429.16 186.83 429.04C193.64 427.97 199.83 428.51 204.99 428.51C207.57 428.56 209.9 428.51 211.94 428.37C213.684 428.244 215.42 428.024 217.14 427.71L219.02 427.31L220.37 426.93L221.2 426.7C221.293 426.667 221.391 426.647 221.49 426.64C221.49 426.64 221.4 426.69 221.22 426.75L220.4 427.03L219.06 427.46L217.19 427.91C215.462 428.259 213.716 428.509 211.96 428.66C209.91 428.81 207.57 428.91 204.96 428.88C199.8 428.93 193.61 428.42 186.89 429.51C186.05 429.63 185.22 429.86 184.37 430.04C183.52 430.22 182.7 430.53 181.84 430.77C180.123 431.314 178.5 432.12 177.03 433.16C175.51 434.218 174.36 435.725 173.74 437.47C173.43 438.355 173.314 439.296 173.401 440.229C173.487 441.163 173.773 442.067 174.24 442.88C174.479 443.249 174.765 443.585 175.09 443.88C175.701 444.571 176.429 445.15 177.24 445.59C178.049 446.049 178.899 446.431 179.78 446.73C181.522 447.282 183.326 447.617 185.15 447.73C188.621 447.949 192.105 447.784 195.54 447.24C202.14 446.37 208.05 445.32 212.99 444.42C217.93 443.52 221.92 442.72 224.68 442.18L227.85 441.56L228.67 441.41C228.802 441.416 228.932 441.45 229.05 441.51Z" fill="#263238"/>
<path d="M189.31 448C189.147 447.082 189.056 446.152 189.04 445.22C188.92 443.51 188.72 441.14 188.37 438.55C188.02 435.96 187.6 433.62 187.26 431.93C187.027 431.028 186.87 430.108 186.79 429.18C187.162 430.038 187.44 430.933 187.62 431.85C188.166 434.035 188.59 436.248 188.89 438.48C189.184 440.709 189.358 442.952 189.41 445.2C189.473 446.134 189.44 447.073 189.31 448Z" fill="#263238"/>
<path opacity="0.4" d="M217.89 427.02L224.78 444.27L230.12 443.28L219.89 426.44L217.89 427.02Z" fill="black"/>
<path d="M307.65 379.74C306.54 380.1 235.37 360.16 206.59 352.07C202.853 351.017 198.935 350.773 195.097 351.354C191.258 351.936 187.588 353.328 184.33 355.44L183.98 355.66C179.255 358.715 175.589 363.155 173.482 368.372C171.376 373.59 170.931 379.331 172.21 384.81C173.031 388.338 174.545 391.669 176.663 394.608C178.781 397.547 181.462 400.035 184.55 401.93C203.55 413.56 243.7 438.02 244.93 437.54C246.54 436.92 296.7 435.62 296.7 435.62L236.35 392.21L265.06 410.77L307.65 379.77V379.74Z" fill="#263238"/>
<path d="M248.23 358.08L263.36 350.25L278.2 359.55L333.74 361.37L341.74 388.37L261.34 369.73C261.34 369.73 246.71 371.03 245.61 367.73C244.51 364.43 248.23 358.08 248.23 358.08Z" fill="#8D5B42"/>
<path d="M293.74 401.42L286.26 426L287.19 433.49C293.777 440.127 302.557 444.134 311.886 444.762C321.216 445.389 330.454 442.594 337.87 436.9C342.467 433.37 346.187 428.826 348.741 423.623C351.294 418.419 352.611 412.696 352.59 406.9L352.48 381.24L293.74 401.42Z" fill="#263238"/>
<path d="M249.2 401.58C249.12 401.69 240.44 395.36 229.82 387.44C219.2 379.52 210.65 373 210.74 372.89C210.83 372.78 219.5 379.1 230.13 387.02C240.76 394.94 249.29 401.46 249.2 401.58Z" fill="#455A64"/>
<path d="M262.34 355.15C259.934 356.194 257.462 357.08 254.94 357.8C252.468 358.676 249.943 359.394 247.38 359.95C249.785 358.904 252.257 358.018 254.78 357.3C257.252 356.423 259.777 355.705 262.34 355.15Z" fill="#EB996E"/>
<path d="M263.47 359.76C262.626 360 261.763 360.164 260.89 360.25C259.3 360.51 257.11 360.9 254.71 361.45C252.31 362 250.17 362.61 248.62 363.07C247.797 363.368 246.951 363.598 246.09 363.76C246.852 363.335 247.661 363 248.5 362.76C250.495 362.052 252.528 361.458 254.59 360.98C256.651 360.508 258.738 360.154 260.84 359.92C261.709 359.774 262.59 359.72 263.47 359.76Z" fill="#EB996E"/>
<path d="M262.2 364C259.466 364.814 256.684 365.455 253.87 365.92C251.088 366.561 248.269 367.031 245.43 367.33C248.168 366.521 250.954 365.88 253.77 365.41C256.549 364.771 259.364 364.3 262.2 364Z" fill="#EB996E"/>
<path d="M242.58 321.8L256.53 367.72C256.609 367.976 256.763 368.202 256.971 368.369C257.18 368.537 257.433 368.638 257.7 368.66L295.7 371.51C296.037 371.533 296.353 371.683 296.583 371.93C296.813 372.177 296.941 372.502 296.94 372.84V375.21C296.94 375.387 296.905 375.563 296.836 375.726C296.767 375.889 296.667 376.037 296.54 376.161C296.413 376.285 296.263 376.382 296.098 376.448C295.933 376.513 295.757 376.544 295.58 376.54L191.58 374.54C191.314 374.535 191.055 374.451 190.838 374.297C190.62 374.144 190.454 373.929 190.36 373.68L172.08 325.79C172.004 325.593 171.975 325.381 171.997 325.171C172.019 324.961 172.09 324.759 172.206 324.582C172.321 324.405 172.477 324.259 172.66 324.154C172.843 324.049 173.049 323.99 173.26 323.98L241.17 320.81C241.484 320.783 241.797 320.867 242.055 321.048C242.313 321.229 242.499 321.496 242.58 321.8Z" fill="#455A64"/>
<path d="M213.28 341.58C212.77 341.77 212.316 342.083 211.956 342.491C211.597 342.9 211.344 343.39 211.22 343.92C211.174 344.473 211.274 345.029 211.511 345.531C211.748 346.033 212.114 346.464 212.57 346.78C213.118 347.177 213.772 347.402 214.449 347.427C215.125 347.452 215.794 347.275 216.37 346.92C216.948 346.491 217.362 345.877 217.544 345.181C217.726 344.485 217.664 343.747 217.37 343.09C216.91 341.82 214.59 340.93 213.25 341.58" fill="#E0E0E0"/>
<path d="M230.12 443.28L219.12 425.2L299.92 361.87C304.947 357.747 311.095 355.228 317.57 354.64C322.287 354.211 327.041 354.82 331.498 356.423C335.955 358.026 340.007 360.584 343.371 363.919C346.734 367.254 349.328 371.285 350.969 375.728C352.61 380.171 353.259 384.919 352.87 389.64L351.58 405.09L298 422.36L230.12 443.28Z" fill="#263238"/>
<path d="M333.74 400.36C333.74 400.36 333.68 400.43 333.53 400.56L332.87 401.1L330.3 403.16L328.43 404.63C327.75 405.17 326.94 405.63 326.11 406.26L323.43 408.1C322.95 408.42 322.43 408.77 321.96 409.1L320.35 410.1C318.16 411.41 315.79 412.91 313.1 414.27C311.77 414.97 310.41 415.73 308.98 416.44L304.51 418.55C297.841 421.605 291.022 424.321 284.08 426.69C269.32 431.78 255.68 435.44 245.91 438.4C243.46 439.12 241.25 439.8 239.31 440.4C237.37 441 235.71 441.51 234.31 441.97L231.19 442.97L230.37 443.22C230.276 443.253 230.179 443.277 230.08 443.29L230.35 443.17L231.15 442.87L234.25 441.76C235.59 441.27 237.25 440.76 239.19 440.1C241.13 439.44 243.32 438.76 245.76 438.02C255.51 434.96 269.14 431.25 283.87 426.17C291.25 423.66 298.12 420.86 304.27 418.09L308.73 416C310.17 415.3 311.53 414.55 312.86 413.86C315.55 412.52 317.92 411.04 320.12 409.76L321.73 408.81C322.24 408.49 322.73 408.15 323.21 407.81L326 406C326.83 405.43 327.64 404.94 328.33 404.41L330.22 402.97L332.85 400.97L333.55 400.47L333.74 400.36Z" fill="#455A64"/>
<path d="M335.7 408.81C335.452 408.992 335.18 409.137 334.89 409.24C334.35 409.48 333.56 409.81 332.57 410.17C329.987 411.122 327.341 411.891 324.65 412.47C321.957 413.045 319.227 413.432 316.48 413.63C315.43 413.7 314.57 413.73 313.98 413.73C313.672 413.753 313.363 413.736 313.06 413.68C314.182 413.478 315.313 413.338 316.45 413.26C318.53 413.03 321.45 412.63 324.54 411.96C327.63 411.29 330.45 410.47 332.45 409.83C333.514 409.431 334.599 409.091 335.7 408.81Z" fill="#455A64"/>
<path d="M296.7 364.91C296.79 365.03 279.5 378.62 258.08 395.26C236.66 411.9 219.22 425.32 219.14 425.2C219.06 425.08 236.34 411.5 257.76 394.85C279.18 378.2 296.62 364.8 296.7 364.91Z" fill="#455A64"/>
<path d="M292 432.11C288.13 430.05 283.78 431.27 280.07 432.52C277.6 433.35 275.07 434.67 272.53 433.96C270.72 433.45 269.37 431.96 267.98 430.71C265.176 428.131 261.884 426.14 258.297 424.853C254.711 423.567 250.904 423.012 247.1 423.22C244.928 423.325 242.876 424.25 241.36 425.81C237.55 429.94 240.42 435.3 243.83 438.81C249.905 444.985 257.928 448.871 266.54 449.81C273.63 450.55 283.38 449.57 290.54 446.49C294.97 444.59 297.24 439.36 294.92 435.14C294.266 433.865 293.25 432.811 292 432.11Z" fill="#3271FC"/>
<g opacity="0.4">
<path opacity="0.4" d="M292 435.41C288.12 433.35 283.77 434.57 280.06 435.82C277.59 436.65 275.06 437.97 272.52 437.26C270.71 436.75 269.36 435.26 267.97 434.01C265.166 431.431 261.874 429.44 258.287 428.153C254.701 426.867 250.894 426.312 247.09 426.52C244.918 426.625 242.866 427.55 241.35 429.11C240.583 429.928 240.033 430.925 239.75 432.01C240.484 434.584 241.889 436.917 243.82 438.77C249.895 444.945 257.918 448.831 266.53 449.77C273.62 450.51 283.37 449.53 290.53 446.45C291.801 445.909 292.927 445.076 293.815 444.017C294.703 442.959 295.328 441.706 295.64 440.36C295.415 439.327 294.97 438.354 294.337 437.507C293.704 436.66 292.897 435.959 291.97 435.45L292 435.41Z" fill="black"/>
</g>
<path d="M295.7 440.32C295.532 439.5 295.21 438.719 294.75 438.02C294.194 437.227 293.492 436.548 292.68 436.02C291.611 435.297 290.389 434.832 289.11 434.66C286.24 434.32 282.9 435.53 279.2 436.53C277.37 437.02 275.37 437.76 273.2 437.53C272.103 437.388 271.048 437.02 270.1 436.45C269.157 435.862 268.267 435.193 267.44 434.45C264.423 431.583 260.801 429.43 256.84 428.15C255.128 427.569 253.363 427.16 251.57 426.93C250.011 426.705 248.429 426.705 246.87 426.93C245.596 427.123 244.368 427.55 243.25 428.19C242.412 428.676 241.654 429.286 241 430C240 431.25 239.63 432.1 239.57 432.06C239.88 431.268 240.312 430.529 240.85 429.87C241.473 429.084 242.224 428.408 243.07 427.87C244.212 427.172 245.479 426.703 246.8 426.49C248.391 426.254 250.009 426.254 251.6 426.49C253.425 426.709 255.224 427.107 256.97 427.68C258.898 428.321 260.759 429.144 262.53 430.14C263.474 430.662 264.379 431.25 265.24 431.9C266.11 432.58 266.92 433.32 267.76 434.04C268.564 434.78 269.431 435.449 270.35 436.04C271.235 436.566 272.219 436.907 273.24 437.04C275.24 437.31 277.24 436.61 279.07 436.13C282.76 435.13 286.15 433.96 289.16 434.35C290.323 434.518 291.438 434.93 292.431 435.559C293.423 436.188 294.272 437.02 294.92 438C295.261 438.537 295.505 439.129 295.64 439.75C295.68 439.937 295.7 440.128 295.7 440.32Z" fill="#263238"/>
<path d="M295.7 440.32C295.532 439.5 295.21 438.719 294.75 438.02C294.194 437.227 293.492 436.548 292.68 436.02C291.611 435.297 290.389 434.832 289.11 434.66C286.24 434.32 282.9 435.53 279.2 436.53C277.37 437.02 275.37 437.76 273.2 437.53C272.103 437.388 271.048 437.02 270.1 436.45C269.157 435.862 268.267 435.193 267.44 434.45C264.423 431.583 260.801 429.43 256.84 428.15C255.128 427.569 253.363 427.16 251.57 426.93C250.011 426.705 248.429 426.705 246.87 426.93C245.596 427.123 244.368 427.55 243.25 428.19C242.412 428.676 241.654 429.286 241 430C240 431.25 239.63 432.1 239.57 432.06C239.88 431.268 240.312 430.529 240.85 429.87C241.473 429.084 242.224 428.408 243.07 427.87C244.212 427.172 245.479 426.703 246.8 426.49C248.391 426.254 250.009 426.254 251.6 426.49C253.425 426.709 255.224 427.107 256.97 427.68C258.898 428.321 260.759 429.144 262.53 430.14C263.474 430.662 264.379 431.25 265.24 431.9C266.11 432.58 266.92 433.32 267.76 434.04C268.564 434.78 269.431 435.449 270.35 436.04C271.235 436.566 272.219 436.907 273.24 437.04C275.24 437.31 277.24 436.61 279.07 436.13C282.76 435.13 286.15 433.96 289.16 434.35C290.323 434.518 291.438 434.93 292.431 435.559C293.423 436.188 294.272 437.02 294.92 438C295.261 438.537 295.505 439.129 295.64 439.75C295.68 439.937 295.7 440.128 295.7 440.32Z" fill="#263238"/>
<path d="M247.63 439.38C248.24 438.846 248.912 438.386 249.63 438.01C251.29 437.006 253.003 436.092 254.76 435.27C256.518 434.442 258.317 433.704 260.15 433.06C260.896 432.755 261.674 432.537 262.47 432.41C261.773 432.81 261.039 433.145 260.28 433.41C258.91 433.98 257.03 434.78 254.98 435.74C252.93 436.7 251.12 437.64 249.81 438.33C249.12 438.752 248.39 439.104 247.63 439.38Z" fill="#263238"/>
<path d="M249 443.26C251.441 441.791 253.969 440.472 256.57 439.31C259.098 437.995 261.703 436.833 264.37 435.83C261.929 437.299 259.401 438.618 256.8 439.78C254.274 441.099 251.669 442.262 249 443.26Z" fill="#263238"/>
<path d="M265 444.94C264.92 445.06 260.79 442.6 255.78 439.44C250.77 436.28 246.78 433.61 246.78 433.49C246.78 433.37 250.98 435.83 256 439C261.02 442.17 265.1 444.82 265 444.94Z" fill="#263238"/>
<path d="M267.34 440.92C266.633 440.532 265.964 440.08 265.34 439.57C264.13 438.69 262.45 437.48 260.57 436.18C258.69 434.88 256.98 433.73 255.73 432.9C255.017 432.495 254.347 432.019 253.73 431.48C254.491 431.771 255.219 432.143 255.9 432.59C257.2 433.34 258.97 434.45 260.9 435.75C262.83 437.05 264.44 438.32 265.6 439.28C266.246 439.752 266.83 440.303 267.34 440.92Z" fill="#263238"/>
</svg>
