<svg width="134" height="166" viewBox="0 0 134 166" fill="none" xmlns="http://www.w3.org/2000/svg">
<path d="M84.0033 67.0829L84.4336 67.447C84.5925 67.586 84.7712 67.7184 84.9434 67.8508C85.2876 68.1222 85.6054 68.3936 86.0026 68.6518C86.7175 69.1748 87.4788 69.6514 88.2401 70.1281C89.7758 71.0746 91.3853 71.896 93.0529 72.5841C94.7133 73.2917 96.4237 73.8758 98.1701 74.3318C98.607 74.4509 99.0572 74.5304 99.4941 74.6297L100.156 74.7753C100.295 74.7753 100.156 74.7753 100.156 74.8084C100.066 74.8296 99.9805 74.8678 99.9046 74.9209C99.845 74.9805 99.845 74.9805 99.8715 74.9673C100.002 74.7732 100.105 74.5614 100.176 74.3384C100.411 73.5746 100.555 72.7858 100.606 71.9883C100.686 71.1211 100.712 70.2075 100.706 69.2873C100.706 67.4403 100.56 65.5536 100.414 63.6603C100.269 61.767 100.037 59.8671 99.792 57.9605C99.5471 56.054 99.2757 54.1474 98.991 52.2673L101.48 51.698C102.576 55.4764 103.46 59.3132 104.128 63.1903C104.475 65.162 104.716 67.1509 104.85 69.1483C104.927 70.1791 104.952 71.2132 104.923 72.2465C104.913 73.3871 104.769 74.5226 104.492 75.6293C104.305 76.337 104.001 77.0083 103.592 77.6153C103.306 78.0291 102.95 78.3898 102.539 78.6811C102.068 79.0176 101.528 79.2439 100.957 79.3431C100.466 79.4258 99.9651 79.4258 99.4743 79.3431L98.713 79.2173C98.2032 79.1313 97.6869 79.0651 97.1837 78.9525C95.1538 78.5494 93.1609 77.9781 91.2257 77.2446C89.2911 76.5023 87.4203 75.6034 85.6318 74.5568C84.7381 74.0206 83.8643 73.4579 83.0169 72.8423C82.5933 72.5378 82.1762 72.1803 81.7591 71.889C81.5539 71.7169 81.3487 71.5514 81.1435 71.366C80.9383 71.1806 80.7463 71.0284 80.4815 70.7768L84.0033 67.0829Z" fill="#E4897B"/>
<path d="M76.8074 64.0708C84.0894 63.0844 89.9415 68.9563 89.9415 68.9563L83.2817 79.2306C83.2817 79.2306 76.1454 74.6628 74.8876 71.5514C73.59 68.3142 73.0803 64.554 76.8074 64.0708Z" fill="#3271FC"/>
<path opacity="0.6" d="M76.8074 64.0708C84.0894 63.0844 89.9415 68.9563 89.9415 68.9563L83.2817 79.2306C83.2817 79.2306 76.1454 74.6628 74.8876 71.5514C73.59 68.3142 73.0803 64.554 76.8074 64.0708Z" fill="#FAFAFA"/>
<path d="M99.0506 53.161L96.6342 48.3152L102.97 48.2622C102.97 48.2622 103.095 51.645 101.493 53.5582L99.0506 53.161Z" fill="#E4897B"/>
<path d="M97.7597 43.1053L102.473 43.946L102.97 48.2622L96.6342 48.3152L97.7597 43.1053Z" fill="#E4897B"/>
<path d="M83.9835 59.9597C83.9371 55.147 79.5812 53.4655 79.5812 53.4655C79.5812 53.4655 85.0294 43.1515 82.2292 36.3065C79.4289 29.4614 70.2006 28.2565 67.2746 31.454C62.1308 31.2355 60.4957 38.6235 60.4957 38.6235C60.4957 38.6235 56.1927 39.345 55.0342 42.4763C53.8757 45.6076 57.4041 49.136 57.4041 49.136C57.4041 49.136 52.4921 49.798 50.6848 53.578C48.8776 57.3581 49.9897 62.376 55.4181 66.7055C63.3092 72.9945 77.8136 65.1035 77.8136 65.1035C77.8136 65.1035 84.0364 65.494 83.9835 59.9597Z" fill="#263238"/>
<path d="M83.05 64.746C83.05 64.746 85.698 65.9045 76.8537 100.838L52.3597 98.7132C53.6307 88.7832 54.1802 82.6134 51.1813 61.7207C54.676 61.3074 58.1962 61.1503 61.7138 61.2506C65.4434 61.3068 69.1643 61.6276 72.8486 62.2105C76.2893 62.8848 79.694 63.731 83.05 64.746Z" fill="#3271FC"/>
<path opacity="0.6" d="M83.05 64.746C83.05 64.746 85.698 65.9045 76.8537 100.838L52.3597 98.7132C53.6307 88.7832 54.1802 82.6134 51.1813 61.7207C54.676 61.3074 58.1962 61.1503 61.7138 61.2506C65.4434 61.3068 69.1643 61.6276 72.8486 62.2105C76.2893 62.8848 79.694 63.731 83.05 64.746Z" fill="#FAFAFA"/>
<path d="M76.7015 63.038C75.4304 62.7335 74.0535 62.4422 72.7957 62.2105C69.1116 61.6254 65.3906 61.3024 61.6608 61.244C60.3831 61.1977 59.1055 61.1977 57.9073 61.244L58.7281 62.8063C58.8738 63.0844 62.3691 69.6051 69.009 73.3057L70.8361 74.3251L72.5375 73.1137C76.8272 70.0486 77.4628 66.0634 76.7015 63.038Z" fill="#FAFAFA"/>
<path d="M63.852 48.8051C64.2426 52.4527 64.375 59.0793 61.6674 61.2506C61.6674 61.2506 64.7656 67.1358 70.6309 70.3995C75.821 66.7055 72.8023 62.2106 72.8023 62.2106C68.8898 60.8866 69.2473 57.9605 70.1543 55.2331L63.852 48.8051Z" fill="#E4897B"/>
<path d="M66.4272 51.4265L70.1741 55.233C69.9458 55.8656 69.7731 56.5168 69.6577 57.1793C68.155 56.8285 65.9704 55.2595 65.9439 53.6442C65.974 52.8824 66.1376 52.1318 66.4272 51.4265Z" fill="#CE6F64"/>
<path d="M63.6931 40.53C62.9716 46.488 62.5413 49.0102 64.9708 52.5917C68.625 57.9671 76.1189 57.5434 78.6014 51.9297C80.8389 46.8587 81.64 37.9482 76.2844 34.5389C75.1102 33.7831 73.7624 33.3397 72.3688 33.2505C70.9752 33.1613 69.582 33.4295 68.321 34.0294C67.0601 34.6294 65.9731 35.5414 65.1633 36.679C64.3534 37.8166 63.8474 39.1421 63.6931 40.53Z" fill="#E4897B"/>
<path d="M68.3139 33.1885C72.9148 34.3801 68.3669 48.3747 61.0319 44.3167C61.0319 44.3167 61.3629 38.405 63.4019 35.8961C64.635 34.4013 66.3917 33.433 68.3139 33.1885Z" fill="#263238"/>
<path d="M67.824 33.963C69.81 37.1936 84.5395 43.317 79.5878 36.3661C74.636 29.4151 67.824 33.963 67.824 33.963Z" fill="#263238"/>
<path d="M61.7998 45.687C61.7172 46.8477 62.0954 47.9941 62.8524 48.8778C63.8719 50.0363 65.2158 49.3346 65.6394 47.9312C66.0168 46.6734 65.944 44.555 64.5869 43.9062C64.2874 43.7741 63.9599 43.7181 63.6335 43.7432C63.3071 43.7682 62.992 43.8736 62.7162 44.0498C62.4404 44.2261 62.2124 44.4678 62.0525 44.7534C61.8926 45.039 61.8058 45.3597 61.7998 45.687Z" fill="#E4897B"/>
<path d="M52.0618 97.2436L50.7709 99.3421C50.665 99.5076 50.857 99.6996 51.135 99.7195L76.8537 101.944C77.0788 101.944 77.2708 101.871 77.2973 101.732L77.7077 99.5606C77.7077 99.4083 77.5554 99.2627 77.3105 99.2428L52.4789 97.0913C52.4021 97.0785 52.3233 97.0858 52.2502 97.1124C52.1772 97.1391 52.1122 97.1843 52.0618 97.2436Z" fill="#3271FC"/>
<path opacity="0.3" d="M52.0618 97.2436L50.7709 99.3421C50.665 99.5076 50.857 99.6996 51.135 99.7195L76.8537 101.944C77.0788 101.944 77.2708 101.871 77.2973 101.732L77.7077 99.5606C77.7077 99.4083 77.5554 99.2627 77.3105 99.2428L52.4789 97.0913C52.4021 97.0785 52.3233 97.0858 52.2502 97.1124C52.1772 97.1391 52.1122 97.1843 52.0618 97.2436Z" fill="black"/>
<path d="M55.16 100.302L54.498 100.242C54.3656 100.242 54.2729 100.156 54.2861 100.07L54.8488 97.2502C54.8488 97.1641 54.9879 97.1046 55.1203 97.1178L55.7823 97.1774C55.9147 97.1774 56.0073 97.2634 55.9941 97.3495L55.438 100.17C55.4115 100.262 55.2924 100.302 55.16 100.302Z" fill="#263238"/>
<path d="M74.967 102.023L74.305 101.964C74.1726 101.964 74.0799 101.878 74.0932 101.792L74.6559 98.9648C74.6559 98.8853 74.7949 98.8258 74.9273 98.839L75.5893 98.8986C75.7217 98.8986 75.8144 98.9847 75.8011 99.0641L75.2451 101.891C75.2186 101.977 75.106 102.03 74.967 102.023Z" fill="#263238"/>
<path d="M65.0635 101.163L64.4015 101.11C64.2691 101.11 64.1764 101.017 64.1896 100.938L64.7523 98.1108C64.7523 98.0314 64.8914 97.9718 65.0238 97.9851L65.6858 98.038C65.8182 98.038 65.9108 98.1307 65.8976 98.2101L65.3415 101.037C65.315 101.116 65.176 101.176 65.0635 101.163Z" fill="#263238"/>
<path d="M52.9886 70.512C51.9929 72.4874 50.8879 74.4058 49.6786 76.2582C48.487 78.0853 47.2292 79.8727 45.8721 81.5939C44.5008 83.3212 43.031 84.9679 41.4698 86.5258C40.6622 87.2871 39.8744 88.0616 39.0072 88.7766L38.3452 89.3194L38.1863 89.4518L37.9745 89.6173C37.8348 89.7313 37.6889 89.8373 37.5375 89.9351C36.9356 90.3475 36.281 90.677 35.5913 90.9149C34.2922 91.3385 32.9197 91.4895 31.5597 91.3584C30.3414 91.2366 29.1416 90.9722 27.9849 90.5706C25.8422 89.823 23.799 88.8159 21.9011 87.5718C18.2493 85.203 14.8858 82.417 11.8784 79.2703L13.6393 77.4233C15.2215 78.6943 16.8898 79.9588 18.5977 81.104C20.2706 82.2759 22.0126 83.3458 23.8143 84.3081C25.5296 85.2504 27.3405 86.0071 29.2162 86.5655C31.0036 87.062 32.7976 87.1481 34.0356 86.6317C34.735 86.3276 35.3605 85.876 35.8693 85.3077C36.6041 84.6457 37.286 83.9109 37.9811 83.1959C39.3382 81.7197 40.596 80.1375 41.8339 78.5619C43.0719 76.9864 44.1906 75.2519 45.2763 73.5307C45.8258 72.6701 46.3488 71.7963 46.8651 70.9225C47.3815 70.0486 47.878 69.1284 48.3083 68.3076L52.9886 70.512Z" fill="#E4897B"/>
<path d="M15.3142 78.2111L12.9575 73.3387L9.03842 78.317C9.03842 78.317 11.6335 80.4817 14.1557 80.4023L15.3142 78.2111Z" fill="#E4897B"/>
<path d="M10.3823 71.9155L8.1646 76.1589L9.03843 78.317L12.9575 73.3388L10.3823 71.9155Z" fill="#E4897B"/>
<path d="M51.1284 61.7207C48.1229 62.2503 43.906 70.8762 43.906 70.8762L52.1611 78.3369C52.1611 78.3369 57.5101 71.1542 57.1923 67.2352C56.9209 63.8921 54.9548 61.0455 51.1284 61.7207Z" fill="#3271FC"/>
<path opacity="0.6" d="M51.1284 61.7207C48.1229 62.2503 43.906 70.8762 43.906 70.8762L52.1611 78.3369C52.1611 78.3369 57.5101 71.1542 57.1923 67.2352C56.9209 63.8921 54.9548 61.0455 51.1284 61.7207Z" fill="#FAFAFA"/>
<path opacity="0.6" d="M23.1324 5.32489L3.72919 130.754L112.906 147.622L132.309 22.186L23.1324 5.32489ZM67.9895 76.6686C62.9783 75.8931 58.3098 73.6486 54.5745 70.2191C50.8392 66.7896 48.205 62.3293 47.0052 57.4024C45.8054 52.4756 46.0939 47.3035 47.8341 42.5406C49.5744 37.7778 52.6883 33.6381 56.7818 30.6453C60.8754 27.6525 65.7646 25.9411 70.831 25.7277C75.8973 25.5142 80.9132 26.8082 85.2439 29.4461C89.5747 32.0839 93.0258 35.947 95.1605 40.5466C97.2953 45.1462 98.0178 50.2757 97.2367 55.286C96.1902 61.9982 92.5221 68.0206 87.0381 72.0299C81.5542 76.0392 74.7029 77.7077 67.9895 76.6686Z" fill="#3271FC"/>
<g style="mix-blend-mode:multiply" opacity="0.3">
<path d="M109.609 142.862H109.444L0.10144 125.921V125.756L19.5576 0.181152H19.7165L129.059 17.1217V17.2872L109.609 142.862ZM0.478785 125.65L109.331 142.485L128.682 17.3667L19.829 0.558492L0.478785 125.65Z" fill="#3271FC"/>
</g>
<path d="M71.9218 77.9662C70.5542 77.9646 69.1887 77.8584 67.8373 77.6484C61.0459 76.5888 54.9288 72.9402 50.7695 67.4679C46.6101 61.9956 44.7319 55.125 45.5288 48.2978C46.3258 41.4706 49.7359 35.2174 55.0438 30.8502C60.3516 26.483 67.1446 24.3413 73.9975 24.8744C80.8503 25.4075 87.2304 28.5741 91.799 33.7096C96.3676 38.8451 98.7696 45.5505 98.501 52.4189C98.2325 59.2872 95.3143 65.7845 90.3587 70.5477C85.4032 75.3109 78.7954 77.9697 71.9218 77.9662ZM68.1418 75.6889C72.9562 76.4327 77.883 75.7323 82.2994 73.6762C86.7158 71.6202 90.4234 68.3008 92.9534 64.1377C95.4834 59.9747 96.7222 55.155 96.5132 50.2879C96.3042 45.4209 94.6568 40.7251 91.7793 36.7942C88.9017 32.8634 84.9232 29.874 80.3469 28.2041C75.7705 26.5342 70.8017 26.2587 66.0688 27.4125C61.3359 28.5663 57.0513 31.0975 53.7569 34.6861C50.4624 38.2747 48.306 42.7596 47.5602 47.5737C46.5689 54.0302 48.1791 60.6163 52.0375 65.887C55.896 71.1578 61.6876 74.6829 68.1418 75.6889Z" fill="#FAFAFA"/>
<path d="M46.9004 84.4287L22.8511 80.71L22.0155 86.1139L46.0648 89.8326L46.9004 84.4287Z" fill="#3271FC"/>
<path opacity="0.6" d="M46.9004 84.4287L22.8511 80.71L22.0155 86.1139L46.0648 89.8326L46.9004 84.4287Z" fill="#FAFAFA"/>
<path d="M66.3388 87.4355L50.0682 84.9196L49.2326 90.3234L65.5032 92.8394L66.3388 87.4355Z" fill="#3271FC"/>
<path opacity="0.6" d="M66.3388 87.4355L50.0682 84.9196L49.2326 90.3234L65.5032 92.8394L66.3388 87.4355Z" fill="#FAFAFA"/>
<path d="M108.12 105.108L21.1537 91.6602L20.3181 97.0641L107.284 110.512L108.12 105.108Z" fill="#FAFAFA"/>
<path d="M63.3312 109.649L20.0105 103.085L19.1903 108.498L62.511 115.062L63.3312 109.649Z" fill="#FAFAFA"/>
<path d="M98.9539 115.455L70.0241 110.982L69.1885 116.386L98.1183 120.859L98.9539 115.455Z" fill="#FAFAFA"/>
<path d="M87.1281 125.395L17.6036 114.645L16.768 120.049L86.2925 130.799L87.1281 125.395Z" fill="#FAFAFA"/>
<path d="M133.475 147.622H132.813C132.815 145.979 132.613 144.342 132.21 142.749L132.872 142.591C133.281 144.236 133.484 145.926 133.475 147.622ZM130.88 139.069C129.423 136.02 127.221 133.388 124.478 131.416L124.862 130.88C127.695 132.914 129.971 135.627 131.482 138.771L130.88 139.069Z" fill="#3271FC"/>
<path opacity="0.6" d="M133.475 147.622H132.813C132.815 145.979 132.613 144.342 132.21 142.749L132.872 142.591C133.281 144.236 133.484 145.926 133.475 147.622ZM130.88 139.069C129.423 136.02 127.221 133.388 124.478 131.416L124.862 130.88C127.695 132.914 129.971 135.627 131.482 138.771L130.88 139.069Z" fill="#FAFAFA"/>
<path d="M112.906 129.37C109.296 129.37 105.768 130.441 102.766 132.446C99.7649 134.452 97.4256 137.302 96.0442 140.637C94.6628 143.972 94.3013 147.642 95.0056 151.182C95.7098 154.723 97.4481 157.975 100.001 160.527C102.553 163.08 105.805 164.818 109.346 165.522C112.886 166.227 116.556 165.865 119.891 164.484C123.226 163.102 126.076 160.763 128.082 157.762C130.087 154.76 131.158 151.232 131.158 147.622C131.158 142.781 129.235 138.139 125.812 134.716C122.389 131.293 117.747 129.37 112.906 129.37ZM112.906 163.51C109.764 163.51 106.692 162.578 104.079 160.832C101.467 159.086 99.4301 156.605 98.2276 153.702C97.0251 150.799 96.7105 147.604 97.3235 144.522C97.9366 141.44 99.4497 138.609 101.672 136.387C103.894 134.165 106.725 132.652 109.807 132.039C112.889 131.426 116.083 131.741 118.986 132.943C121.889 134.146 124.371 136.182 126.117 138.795C127.862 141.408 128.794 144.479 128.794 147.622C128.794 151.836 127.12 155.877 124.141 158.856C121.161 161.836 117.12 163.51 112.906 163.51Z" fill="#3271FC"/>
<path opacity="0.6" d="M112.906 129.37C109.296 129.37 105.768 130.441 102.766 132.446C99.7649 134.452 97.4256 137.302 96.0442 140.637C94.6628 143.972 94.3013 147.642 95.0056 151.182C95.7098 154.723 97.4481 157.975 100.001 160.527C102.553 163.08 105.805 164.818 109.346 165.522C112.886 166.227 116.556 165.865 119.891 164.484C123.226 163.102 126.076 160.763 128.082 157.762C130.087 154.76 131.158 151.232 131.158 147.622C131.158 142.781 129.235 138.139 125.812 134.716C122.389 131.293 117.747 129.37 112.906 129.37ZM112.906 163.51C109.764 163.51 106.692 162.578 104.079 160.832C101.467 159.086 99.4301 156.605 98.2276 153.702C97.0251 150.799 96.7105 147.604 97.3235 144.522C97.9366 141.44 99.4497 138.609 101.672 136.387C103.894 134.165 106.725 132.652 109.807 132.039C112.889 131.426 116.083 131.741 118.986 132.943C121.889 134.146 124.371 136.182 126.117 138.795C127.862 141.408 128.794 144.479 128.794 147.622C128.794 151.836 127.12 155.877 124.141 158.856C121.161 161.836 117.12 163.51 112.906 163.51Z" fill="#FAFAFA"/>
<path d="M112.906 163.503C121.677 163.503 128.788 156.393 128.788 147.622C128.788 138.851 121.677 131.74 112.906 131.74C104.135 131.74 97.0248 138.851 97.0248 147.622C97.0248 156.393 104.135 163.503 112.906 163.503Z" fill="#3271FC"/>
<path opacity="0.2" d="M112.906 163.503C121.677 163.503 128.788 156.393 128.788 147.622C128.788 138.851 121.677 131.74 112.906 131.74C104.135 131.74 97.0248 138.851 97.0248 147.622C97.0248 156.393 104.135 163.503 112.906 163.503Z" fill="black"/>
<path d="M110.437 157.671L101.116 148.35L103.459 146.013L110.437 152.991L122.36 141.068L124.696 143.411L110.437 157.671Z" fill="#FAFAFA"/>
</svg>
