<svg width="23" height="23" viewBox="0 0 23 23" fill="none" xmlns="http://www.w3.org/2000/svg">
<path d="M23 11.5C23 17.2486 18.7821 22.0119 13.2719 22.8643C13.1476 22.8836 13.0222 22.9009 12.8964 22.916C12.4918 22.9652 12.0807 22.9929 11.6643 22.9986C11.6094 22.9995 11.5549 23 11.5 23C11.4451 23 11.3906 22.9995 11.3357 22.9986C10.9194 22.993 10.5082 22.9653 10.1036 22.916C9.97778 22.901 9.85244 22.8836 9.72806 22.8644C4.21794 22.0119 0 17.2486 0 11.5C0 5.14872 5.14872 0 11.5 0C17.8513 0 23 5.14872 23 11.5Z" fill="#3271FC"/>
<path d="M23 11.5C23 11.9332 22.9761 12.3608 22.9291 12.7819C22.9239 12.8288 22.9188 12.8762 22.9132 12.9232C22.8836 13.1616 22.8465 13.3982 22.8028 13.6319C22.7944 13.6784 22.7855 13.7244 22.7761 13.7699C21.9631 17.8325 19.0102 21.1215 15.142 22.4109C14.559 22.5236 14.352 22.1654 14.352 21.8589C14.352 21.4801 14.3651 20.2418 14.3651 18.7032C14.3651 17.6302 13.9976 16.9303 13.5855 16.5736C15.5771 16.352 17.6475 15.7146 18.469 13.363C18.4854 13.317 18.5009 13.27 18.5159 13.2226C18.5619 13.0795 18.6027 12.9302 18.6393 12.7743C18.6501 12.7279 18.661 12.681 18.6708 12.6331C18.7783 12.1238 18.8365 11.5488 18.8365 10.8991C18.8365 9.64396 18.3901 8.6179 17.6527 7.81245C17.7724 7.52284 18.1662 6.35312 17.5401 4.76895C17.5401 4.76895 16.5759 4.46011 14.3806 5.94806C13.4616 5.69317 12.4772 5.56551 11.5 5.56083C10.5227 5.56551 9.53889 5.69322 8.62123 5.94806C6.42401 4.46011 5.45801 4.76895 5.45801 4.76895C4.83373 6.35312 5.22756 7.52284 5.34678 7.81245C4.61123 8.6179 4.16156 9.64401 4.16156 10.8991C4.16156 11.5483 4.21978 12.1233 4.32773 12.6326C4.33757 12.6805 4.3479 12.7274 4.35872 12.7738C4.39534 12.9297 4.43666 13.0794 4.48266 13.2226C4.49767 13.27 4.51366 13.3169 4.52961 13.3629C5.35055 15.7103 7.41539 16.3567 9.40139 16.5825C9.07233 16.8697 8.77428 17.3771 8.671 18.1206C8.01478 18.4145 6.35034 18.9223 5.32472 17.1645C5.32472 17.1645 4.71639 16.0605 3.56172 15.9792C3.56172 15.9792 2.43939 15.9647 3.48333 16.6782C3.48333 16.6782 4.23672 17.0321 4.76006 18.361C4.76006 18.361 5.43505 20.4136 8.63439 19.718C8.63955 20.6788 8.64989 21.5847 8.64989 21.8588C8.64989 22.1625 8.43911 22.5188 7.86411 22.4122C3.99355 21.1238 1.03734 17.8344 0.223891 13.7699V13.7695C0.214502 13.7239 0.205563 13.6779 0.197611 13.6319C0.153498 13.3982 0.116393 13.1616 0.0872832 12.9232C0.0811738 12.8762 0.0760078 12.8293 0.0708418 12.7819C0.0239434 12.3608 0 11.9332 0 11.5C0 5.14872 5.14966 0 11.5 0C17.8508 0 23 5.14872 23 11.5Z" fill="white"/>
<path d="M4.25312 16.3379C4.17006 16.2985 4.0799 16.3149 4.05506 16.3736C4.02829 16.4309 4.07478 16.5088 4.15834 16.5463C4.2405 16.5858 4.33012 16.5689 4.3555 16.5116C4.38456 16.4543 4.33668 16.3755 4.25312 16.3379Z" fill="white"/>
<path d="M4.7887 16.7919C4.71314 16.7121 4.60937 16.6882 4.55308 16.7389C4.49725 16.7905 4.51131 16.898 4.58642 16.9778C4.65919 17.0581 4.76664 17.082 4.82158 17.0313C4.87886 16.9797 4.86381 16.8731 4.7887 16.7919Z" fill="white"/>
<path d="M5.27637 17.4167C5.20409 17.3153 5.09048 17.2712 5.0196 17.32C4.94732 17.3693 4.94732 17.4918 5.01771 17.5941C5.08905 17.6964 5.20405 17.7424 5.27493 17.6932C5.34676 17.6434 5.34676 17.5204 5.27637 17.4167Z" fill="white"/>
<path d="M5.83306 18.0395C5.73401 17.9452 5.59884 17.9259 5.53501 17.9954C5.47212 18.0649 5.49979 18.1968 5.60023 18.2892C5.69879 18.3841 5.83306 18.4028 5.89595 18.3333C5.96311 18.2643 5.93261 18.132 5.83306 18.0395Z" fill="white"/>
<path d="M6.56484 18.469C6.4334 18.4282 6.3034 18.4709 6.27662 18.5615C6.25034 18.6525 6.33529 18.7581 6.46529 18.7976C6.59579 18.8356 6.72485 18.7948 6.75302 18.7046C6.77983 18.6131 6.69489 18.5085 6.56484 18.469Z" fill="white"/>
<path d="M7.44545 18.606C7.3079 18.6084 7.19995 18.6858 7.19995 18.7816C7.20134 18.875 7.31262 18.952 7.45012 18.9487C7.58673 18.9473 7.69751 18.8684 7.69419 18.7736C7.69423 18.6798 7.58201 18.6032 7.44545 18.606Z" fill="white"/>
<path d="M8.57006 18.6248C8.55268 18.5305 8.43067 18.4751 8.29501 18.4985C8.16123 18.5229 8.06455 18.6182 8.08145 18.713C8.09834 18.8046 8.22178 18.8618 8.35556 18.8374C8.49123 18.8121 8.58606 18.7173 8.57006 18.6248Z" fill="white"/>
</svg>
