<svg width="238" height="161" viewBox="0 0 238 161" fill="none" xmlns="http://www.w3.org/2000/svg">
<path d="M64.4187 120.106L61.8451 126.028C61.8451 126.028 66.9224 130.671 66.5416 131.824L55.0478 127.171L58.6844 117.778L64.4187 120.106Z" fill="#3271FC"/>
<path opacity="0.5" d="M64.4187 120.106L61.8451 126.028C61.8451 126.028 66.9224 130.671 66.5416 131.824L55.0478 127.171L58.6844 117.778L64.4187 120.106Z" fill="black"/>
<path d="M55.0478 127.167L55.4509 126.224L66.3227 131.054C66.3227 131.054 66.7447 131.485 66.5448 131.83L55.0478 127.167Z" fill="#263238"/>
<path d="M44.1791 128.501L40.955 134.087C40.955 134.087 45.4675 139.284 44.9725 140.392L34.0752 134.441L38.7432 125.516L44.1791 128.501Z" fill="#3271FC"/>
<path opacity="0.5" d="M44.1791 128.501L40.955 134.087C40.955 134.087 45.4675 139.284 44.9725 140.392L34.0752 134.441L38.7432 125.516L44.1791 128.501Z" fill="black"/>
<path d="M34.0753 134.425L34.5893 133.546L44.8392 139.581C44.8392 139.581 45.2105 140.06 44.9725 140.376L34.0753 134.425Z" fill="#263238"/>
<path d="M58.237 50.1579L65.3008 50.7182L65.5357 46.7061C65.5357 46.7061 68.3917 46.6642 68.8105 43.8403C69.2294 41.0164 69.6546 34.454 69.6546 34.454C68.1655 33.5371 66.4621 33.0403 64.7205 33.0148C62.9788 32.9894 61.2621 33.4362 59.7475 34.3091L59.2905 34.5731L58.237 50.1579Z" fill="#FFBE9D"/>
<path d="M65.5452 46.6642C64.2544 46.5055 63.0393 45.9608 62.0545 45.0993C62.0545 45.0993 62.6701 47.3211 65.488 47.4628L65.5452 46.6642Z" fill="#EB996E"/>
<path d="M59.2271 37.5484C59.1827 37.5194 57.3897 36.6983 57.1835 38.6432C56.9772 40.5881 58.9415 40.3949 58.951 40.3401C58.9605 40.2854 59.2271 37.5484 59.2271 37.5484Z" fill="#FFBE9D"/>
<path d="M58.4432 39.5384C58.4432 39.5384 58.4083 39.5577 58.348 39.5802C58.2658 39.6054 58.1771 39.5973 58.1005 39.5577C57.9824 39.466 57.8906 39.3439 57.8348 39.204C57.779 39.0641 57.7612 38.9116 57.7832 38.7623C57.7949 38.5956 57.8437 38.4338 57.926 38.289C57.9507 38.2304 57.989 38.1787 58.0376 38.1384C58.0862 38.098 58.1437 38.0702 58.2052 38.0572C58.2449 38.0512 58.2853 38.0596 58.3195 38.0808C58.3537 38.1019 58.3796 38.1346 58.3925 38.1731C58.4115 38.2278 58.3925 38.2665 58.3925 38.2697C58.3925 38.2729 58.4369 38.2439 58.4306 38.1602C58.4248 38.1111 58.4024 38.0655 58.3671 38.0314C58.3439 38.0078 58.3161 37.9893 58.2855 37.9771C58.255 37.9649 58.2222 37.9593 58.1894 37.9606C58.1091 37.9682 58.032 37.9965 57.9654 38.0427C57.8988 38.0888 57.8448 38.1515 57.8086 38.2246C57.7089 38.3836 57.6489 38.5649 57.6341 38.7527C57.6068 38.9248 57.6302 39.1012 57.7013 39.2599C57.7724 39.4186 57.8881 39.5524 58.0339 39.6446C58.0843 39.6674 58.1393 39.6777 58.1945 39.6749C58.2496 39.6721 58.3033 39.6562 58.3512 39.6285C58.4369 39.5867 58.4496 39.5448 58.4432 39.5384Z" fill="#EB996E"/>
<path d="M71.2603 32.8601C71.3031 32.6872 71.3026 32.5061 71.2588 32.3335C71.215 32.1608 71.1294 32.002 71.0097 31.8715C70.8836 31.7489 70.7189 31.6755 70.5447 31.6643C70.3704 31.6531 70.1979 31.7049 70.0577 31.8104C70.0998 31.6959 70.1178 31.5737 70.1106 31.4517C70.1034 31.3297 70.0711 31.2106 70.0158 31.102C69.9605 30.9934 69.8834 30.8978 69.7895 30.8213C69.6956 30.7447 69.587 30.689 69.4706 30.6576C69.02 30.5642 68.582 30.8572 68.1251 30.9152C67.6771 30.9443 67.2319 30.8257 66.8558 30.5771C66.4654 30.3517 66.1132 30.0619 65.7165 29.8494C64.8799 29.3965 63.9008 29.297 62.9922 29.5726C62.0837 29.8481 61.319 30.4764 60.8645 31.3209C60.5643 31.1974 60.234 31.17 59.918 31.2425C59.602 31.3151 59.3155 31.484 59.0969 31.7266C58.6651 32.2229 58.4309 32.8646 58.4401 33.5266C58.4401 33.9685 58.488 34.4091 58.5829 34.8404C58.5829 34.8758 58.5829 34.9112 58.567 34.9499C58.3798 36.5083 58.3004 38.3598 58.951 38.4629C60.0902 38.6432 60.1188 36.4246 60.1188 36.4246C61.5944 36.0769 61.3691 33.8744 61.7625 33.6039C62.156 33.3334 62.9938 32.6862 65.7102 34.6214C66.7311 35.272 67.928 35.5796 69.131 35.5005H69.2072H69.2262H69.2516C69.5254 35.4705 69.793 35.3977 70.045 35.2847C70.3421 35.1635 70.5934 34.9492 70.7621 34.6729C70.843 34.5341 70.8825 34.3744 70.8757 34.2132C70.8689 34.052 70.8163 33.8963 70.7241 33.7649C70.9862 33.523 71.1726 33.2084 71.2603 32.8601Z" fill="#263238"/>
<path d="M65.5452 49.1629L65.231 60.3943L58.3449 45.3537L58.5163 43.9594L65.5452 49.1629Z" fill="#EBEBEB"/>
<path d="M60.9787 82.7315C61.2294 82.8152 75.5761 97.5274 75.2588 100.171C74.9414 102.815 64.7328 122.389 64.7328 122.389L57.4341 118.747L64.2663 101.591L64.1775 100.525L55.8284 93.5861L56.2759 82.432L60.9787 82.7315Z" fill="#263238"/>
<path d="M57.8879 85.6327C57.7198 85.887 55.2382 109 54.5718 110.195C53.9054 111.389 43.9348 131.125 43.9348 131.125L36.5314 128.098L45.5691 106.411L44.5409 85.887L45.0962 80.091L56.2759 82.432L57.8879 85.6327Z" fill="#263238"/>
<path d="M54.7019 109.802C54.7258 109.727 54.7417 109.649 54.7495 109.57C54.7781 109.403 54.813 109.181 54.8574 108.904C54.9463 108.305 55.0732 107.471 55.2255 106.447C55.5206 104.351 55.9268 101.488 56.3774 98.3259C56.828 95.1639 57.1961 92.2916 57.4817 90.1986C57.6119 89.1682 57.7197 88.331 57.7991 87.7321L57.8752 87.0592C57.8831 86.981 57.8831 86.9022 57.8752 86.8241C57.8752 86.8241 57.8562 86.9046 57.8276 87.0559C57.7991 87.2073 57.7642 87.4455 57.7197 87.7225L57.3548 90.1826C57.0565 92.2756 56.6503 95.1381 56.2029 98.3034C55.7554 101.469 55.381 104.334 55.0986 106.431C54.9653 107.458 54.8574 108.295 54.7812 108.894C54.7495 109.174 54.721 109.399 54.7019 109.567C54.6942 109.645 54.6942 109.724 54.7019 109.802Z" fill="#455A64"/>
<path d="M45.7563 105.748C45.8499 106.37 45.9943 106.983 46.1879 107.58C46.332 108.192 46.5274 108.79 46.7718 109.367C46.6747 108.749 46.5272 108.141 46.3307 107.548C46.192 106.932 45.9998 106.33 45.7563 105.748Z" fill="#455A64"/>
<path d="M44.636 110.984C44.8019 110.818 44.9392 110.625 45.0422 110.414C45.5948 109.415 45.835 108.27 45.7308 107.129C45.723 106.894 45.6758 106.662 45.5912 106.444C45.7661 108.022 45.4321 109.615 44.6392 110.984H44.636Z" fill="#455A64"/>
<path d="M66.64 99.0955C65.7519 99.4504 65.0235 100.124 64.5932 100.989C64.6313 101.015 64.9867 100.49 65.5452 99.9713C66.1037 99.4529 66.6749 99.1373 66.64 99.0955Z" fill="#455A64"/>
<path d="M65.5293 98.4128C65.2326 98.6207 64.9907 98.8994 64.8249 99.2243C64.6119 99.5209 64.4736 99.8657 64.4218 100.229C64.6172 99.9322 64.7963 99.6248 64.9581 99.308C65.1646 99.0205 65.3553 98.7217 65.5293 98.4128Z" fill="#455A64"/>
<path d="M64.5392 64.693L62.7082 73.9215L61.2167 86.8015C61.2167 86.8015 55.0668 85.9289 52.4457 85.0885C49.4056 84.1225 42.7924 83.2789 42.7924 83.2789L43.9094 84.3994C41.5421 83.7264 40.0348 81.437 40.0348 81.437C44.1093 77.602 47.6 69.6937 47.6 69.6937L50.7003 54.0702C50.7003 54.0702 51.17 51.8678 51.4556 50.8857C51.7412 49.9036 56.4472 46.7447 57.1009 46.3455L57.5103 46.149L57.6404 44.8965L58.1259 44.6002L63.216 49.2982C64.2081 50.2104 64.8388 51.4581 64.9898 52.808C65.205 54.7587 65.2792 56.7228 65.212 58.6845C65.1517 60.536 64.5392 64.693 64.5392 64.693Z" fill="#3271FC"/>
<path d="M61.0422 48.7121C61.0422 48.7121 63.7332 50.1772 64.1997 51.4202C64.6662 52.6631 63.2794 66.2901 63.2794 66.2901L72.9486 66.4769L72.9866 72.3212C72.9866 72.3212 57.6309 73.5544 57.0311 72.7108C56.2251 71.5709 55.2858 60.9224 55.2858 60.9224L54.9367 53.2588C54.9367 53.2588 55.8157 47.4177 61.0422 48.7121Z" fill="#3271FC"/>
<g opacity="0.3">
<path opacity="0.3" d="M62.7082 73.9215C61.4575 74.3187 60.1381 74.4427 58.8367 74.2854C57.4754 74.1598 56.0886 73.4031 55.5746 72.1151C55.1811 71.133 55.3461 70.0221 55.2858 68.9627C55.2318 68.0386 55.0097 67.137 54.8701 66.2257C54.7305 65.3145 55.1874 63.6497 55.5047 62.7642C55.5047 62.7642 55.8475 69.0883 56.8249 71.7448C56.9336 72.1158 57.1398 72.4497 57.4215 72.7108C57.7673 72.9942 58.2433 73.0328 58.6908 73.065C59.9252 73.197 62.9018 72.9781 62.9018 72.9781" fill="black"/>
</g>
<path d="M54.9431 54.0959C54.939 54.1431 54.939 54.1905 54.9431 54.2376C54.9431 54.3342 54.9431 54.4695 54.959 54.6433C54.959 55.0104 55.0002 55.5353 55.0319 56.2083C55.0637 56.8812 55.1113 57.7217 55.1621 58.6844C55.2128 59.6472 55.2509 60.7517 55.3683 61.9624C55.4857 63.1731 55.5968 64.4998 55.7459 65.923C55.8951 67.3462 56.0633 68.8661 56.333 70.4536C56.3964 70.8593 56.4855 71.2605 56.5996 71.6546C56.7315 72.0673 56.9731 72.435 57.2977 72.7172C57.6312 73.0091 58.0601 73.1641 58.5004 73.1519C58.9256 73.1519 59.354 73.1519 59.7697 73.1519C61.496 73.1068 63.2794 73.0199 65.1073 72.9169C67.8522 72.7655 70.5019 72.5949 72.9676 72.4145H73.0374V72.3437C73.0374 70.2668 73.0152 68.3122 73.0025 66.5058V66.4382H72.9359L63.6031 66.2353L60.9946 66.1903H60.306C60.1505 66.1903 60.0712 66.1903 60.0712 66.1903C60.0712 66.1903 60.1505 66.1903 60.306 66.2064L60.9915 66.2353L63.6031 66.3191L72.9327 66.5799L72.8661 66.5123C72.8661 68.3155 72.8661 70.27 72.8851 72.3469L72.9581 72.2696C70.4861 72.4403 67.8395 72.6142 65.0978 72.7655C63.2731 72.8653 61.4897 72.9587 59.7666 73.0038C59.335 73.0038 58.9098 73.0199 58.4972 73.0038C58.0909 73.0192 57.694 72.8777 57.3866 72.6077C57.0834 72.3446 56.8582 72.0013 56.736 71.616C56.6243 71.229 56.5363 70.8354 56.4726 70.4375C56.2029 68.8564 56.0315 67.3366 55.8697 65.9295C55.7079 64.5223 55.5841 63.186 55.473 61.9753C55.362 60.7646 55.308 59.6633 55.2446 58.7005C55.1811 57.7378 55.1303 56.9102 55.0891 56.2276C55.0478 55.5449 55.0097 55.0297 54.9843 54.6659C54.9843 54.492 54.9621 54.3439 54.9526 54.2569C54.9557 54.2031 54.9525 54.1491 54.9431 54.0959Z" fill="#263238"/>
<path d="M71.0827 72.2343C71.1577 71.2918 71.1799 70.3457 71.1493 69.4007C71.1703 68.455 71.1385 67.509 71.0541 66.567C70.9791 67.5095 70.9569 68.4556 70.9875 69.4007C70.9665 70.3462 70.9983 71.2923 71.0827 72.2343Z" fill="#263238"/>
<path d="M72.1044 67.4558C72.1235 67.4558 72.0283 67.3334 71.8443 67.3978C71.7905 67.4169 71.7432 67.4514 71.7083 67.4971C71.6734 67.5428 71.6523 67.5978 71.6475 67.6554C71.6392 67.7273 71.6534 67.8 71.6881 67.8633C71.7229 67.9265 71.7763 67.977 71.841 68.0077C71.9056 68.0383 71.9781 68.0475 72.0482 68.034C72.1183 68.0205 72.1824 67.9849 72.2314 67.9323C72.2722 67.8942 72.3025 67.8459 72.3192 67.7923C72.3359 67.7386 72.3384 67.6814 72.3266 67.6264C72.2822 67.4397 72.1552 67.401 72.1521 67.4204C72.1489 67.4397 72.2123 67.5073 72.2155 67.6393C72.2164 67.6739 72.2098 67.7084 72.1961 67.7401C72.1824 67.7718 72.1619 67.8001 72.1362 67.8229C72.1053 67.8489 72.068 67.8659 72.0283 67.8721C71.9887 67.8784 71.9481 67.8736 71.9109 67.8583C71.8758 67.84 71.8463 67.8124 71.8256 67.7783C71.8049 67.7443 71.7938 67.7051 71.7935 67.6651C71.7943 67.6314 71.8039 67.5985 71.8211 67.5697C71.8384 67.5409 71.8628 67.5171 71.8918 67.5009C72.0029 67.4332 72.0949 67.4751 72.1044 67.4558Z" fill="#263238"/>
<path d="M50.6527 55.4097C50.6527 55.4097 45.6198 62.0848 45.0074 63.9009C44.3949 65.7169 44.8677 68.3316 45.8927 69.5809C46.9177 70.8303 47.7428 70.3215 47.7428 70.3215L50.6527 55.4097Z" fill="#3271FC"/>
<path d="M47.9173 69.787C48.3273 69.9372 48.7534 70.0377 49.1866 70.0865C49.6087 70.1875 50.0414 70.2351 50.475 70.2282C50.0651 70.0775 49.639 69.977 49.2057 69.9287C48.7836 69.8277 48.3509 69.7801 47.9173 69.787Z" fill="#263238"/>
<path d="M46.9653 74.704C46.9085 74.8161 46.8628 74.9337 46.8289 75.055C46.7527 75.2868 46.6384 75.6152 46.4893 76.021C46.0985 77.0783 45.6471 78.1115 45.1375 79.1154C44.6242 80.1164 44.0607 81.0902 43.4493 82.0327C43.2144 82.3966 43.0209 82.6767 42.8844 82.886C42.8068 82.9853 42.7408 83.0933 42.6877 83.208C42.7804 83.1233 42.8634 83.0282 42.9352 82.9246C43.0843 82.7347 43.2938 82.4545 43.5413 82.0971C44.1846 81.1719 44.7656 80.2037 45.2803 79.1991C45.7951 78.1908 46.2343 77.1446 46.594 76.0693C46.7305 75.6571 46.832 75.319 46.8891 75.0839C46.931 74.9613 46.9566 74.8335 46.9653 74.704Z" fill="#263238"/>
<g opacity="0.3">
<path opacity="0.3" d="M46.6163 75.4961C45.8166 76.9387 44.9979 78.3941 43.7857 79.5114C43.3271 79.8648 42.9116 80.2723 42.5481 80.7254C42.2307 81.2051 42.0816 81.8749 42.3926 82.3676C42.4389 82.4594 42.5117 82.5347 42.6013 82.5836C42.6908 82.6325 42.7929 82.6526 42.894 82.6413C43.0266 82.5897 43.1383 82.4944 43.2113 82.3708C44.7292 80.3873 45.863 78.13 46.5528 75.7183" fill="black"/>
</g>
<g opacity="0.3">
<path opacity="0.3" d="M47.2826 70.2958C46.594 69.7935 46.3529 68.8404 46.4544 67.9838C46.556 67.1273 46.9431 66.3416 47.289 65.5592C48.3346 63.2194 49.1539 60.7823 49.7356 58.282L50.2275 56.4305L47.7396 69.6325L47.2826 70.2958Z" fill="black"/>
</g>
<path d="M59.7316 48.1197C59.4348 47.7826 59.1168 47.4653 58.7796 47.1698C58.4821 46.8283 58.1642 46.5057 57.8276 46.2038C58.0395 46.605 58.3187 46.9657 58.6527 47.2696C58.9574 47.6183 59.3232 47.9065 59.7316 48.1197Z" fill="#263238"/>
<path d="M60.2394 49.266C60.2394 49.295 60.5313 49.3851 60.9756 49.6073C62.1417 50.1944 63.081 51.16 63.6444 52.3508C63.8601 52.8048 63.9617 53.1075 63.9617 53.101C63.9626 53.0255 63.9508 52.9503 63.9268 52.8788C63.8779 52.6821 63.8142 52.4894 63.7364 52.3025C63.2119 51.0516 62.2371 50.0509 61.0105 49.5043C60.8276 49.4229 60.6388 49.3561 60.4456 49.3046C60.3795 49.2802 60.3098 49.2672 60.2394 49.266Z" fill="#263238"/>
<path d="M46.7305 71.6256C46.7625 71.5865 46.7892 71.5432 46.8098 71.4968L47.0098 71.1137C47.1906 70.7563 47.435 70.27 47.7364 69.6775C48.0538 68.2157 48.4949 66.084 48.9804 63.7109C49.431 61.4601 49.8213 59.4347 50.1386 57.96L50.456 56.2115C50.4877 56.0215 50.5163 55.8637 50.5385 55.7349C50.5516 55.6802 50.557 55.6238 50.5543 55.5675C50.533 55.6194 50.5171 55.6733 50.5067 55.7285C50.4782 55.8541 50.4401 56.0119 50.3957 56.2018C50.3005 56.6333 50.1704 57.2194 50.0149 57.9374C49.6975 59.4251 49.285 61.4472 48.8217 63.6787C48.3362 66.0518 47.911 68.1867 47.6286 69.6582C47.3461 70.2604 47.1176 70.753 46.9495 71.1169L46.7718 71.5129C46.7544 71.549 46.7406 71.5868 46.7305 71.6256Z" fill="#263238"/>
<path d="M63.4444 66.2869C63.4848 66.1287 63.5103 65.967 63.5206 65.8039C63.5555 65.4626 63.6031 65.015 63.6602 64.4773C63.7744 63.3599 63.9204 61.8111 64.0696 60.1045C64.2187 58.3979 64.3456 56.8459 64.4313 55.7221C64.4694 55.1843 64.498 54.7368 64.5234 54.3954C64.538 54.2326 64.538 54.0688 64.5234 53.906C64.4872 54.0649 64.4628 54.2264 64.4504 54.389C64.4155 54.7303 64.3679 55.1779 64.3076 55.7156C64.1965 56.833 64.0505 58.3786 63.9014 60.0884C63.7522 61.7982 63.6253 63.347 63.5396 64.4676C63.5015 65.0053 63.473 65.4529 63.4476 65.7975C63.4353 65.9603 63.4343 66.1239 63.4444 66.2869Z" fill="#263238"/>
<path d="M72.8248 67.1595C72.8248 67.1595 74.9129 65.5495 75.4206 65.4561C75.8109 65.3821 78.137 65.4239 79.2064 65.4561C79.4062 65.4544 79.5987 65.5324 79.7424 65.6734C79.886 65.8143 79.9693 66.0069 79.9743 66.2096C79.9774 66.2353 79.9774 66.2612 79.9743 66.2869C79.9477 66.4154 79.886 66.5337 79.7962 66.6283C79.7064 66.7228 79.5922 66.7897 79.4666 66.8214C79.6288 66.8743 79.7704 66.9778 79.8713 67.1171C79.9721 67.2565 80.0271 67.4246 80.0283 67.5974C80.0283 68.2092 79.3079 68.338 79.3079 68.338L79.4126 68.4346C79.503 68.5275 79.5672 68.6432 79.5986 68.7698C79.6299 68.8963 79.6274 69.0291 79.5911 69.1543C79.5548 69.2795 79.4862 69.3926 79.3923 69.4817C79.2984 69.5709 79.1827 69.633 79.0572 69.6615L78.7399 69.7387C78.8617 69.7889 78.9674 69.8723 79.0452 69.9797C79.1231 70.0872 79.1701 70.2144 79.181 70.3473C79.181 71.1523 77.3785 71.3133 77.3785 71.3133C77.3785 71.3133 72.9581 72.0249 72.8629 71.9927C72.7677 71.9605 72.8248 67.1595 72.8248 67.1595Z" fill="#FFBE9D"/>
<path d="M78.797 64.4902C78.778 64.7574 78.7145 65.3241 78.2702 65.5785L75.8046 65.4819C75.8046 65.4819 77.6387 64.8379 77.9021 64.5159C78.0042 64.384 78.1226 64.2661 78.2544 64.1649C78.3091 64.1276 78.3731 64.1067 78.439 64.1047C78.5049 64.1027 78.57 64.1197 78.6268 64.1538C78.6836 64.1878 78.7297 64.2375 78.7598 64.297C78.79 64.3565 78.8028 64.4235 78.797 64.4902Z" fill="#FFBE9D"/>
<path d="M76.966 65.4562C77.3337 65.5445 77.7131 65.5717 78.0894 65.5366C78.4657 65.5592 78.8433 65.5322 79.2127 65.4562C78.8433 65.3722 78.4636 65.345 78.0862 65.3757C77.711 65.3565 77.3348 65.3836 76.966 65.4562Z" fill="#EB996E"/>
<path d="M77.5182 66.8536C77.8313 66.956 78.1622 66.99 78.4892 66.9534C78.8149 66.9658 79.1394 66.9076 79.4412 66.7828C79.1195 66.7474 78.795 66.7474 78.4734 66.7828C78.1533 66.7698 77.8329 66.7936 77.5182 66.8536Z" fill="#EB996E"/>
<path d="M76.2647 66.6733C76.2266 66.6991 76.2647 66.8343 76.4138 66.9245C76.563 67.0146 76.6963 67.005 76.6994 66.9599C76.7026 66.9148 76.6106 66.8601 76.5027 66.7892C76.3948 66.7184 76.3028 66.654 76.2647 66.6733Z" fill="#EB996E"/>
<path d="M77.2484 68.4378C77.9535 68.5217 78.667 68.4978 79.3651 68.367C79.0152 68.2964 78.6567 68.2801 78.302 68.3187C77.9469 68.3051 77.5918 68.3452 77.2484 68.4378Z" fill="#EB996E"/>
<path d="M75.8426 67.7681C75.8236 67.7681 75.7855 67.8132 75.7728 67.9098C75.7593 68.0413 75.7967 68.1731 75.8773 68.2771C75.9579 68.3811 76.0752 68.4491 76.2044 68.4668C76.2996 68.4668 76.3567 68.4668 76.3567 68.4314C76.3567 68.396 76.1441 68.3606 76.0045 68.177C75.8648 67.9935 75.8807 67.7778 75.8426 67.7681Z" fill="#EB996E"/>
<path d="M76.874 69.9867C77.1913 70.0262 77.5128 70.0131 77.826 69.9481C78.1522 69.9365 78.474 69.869 78.778 69.7484C78.4607 69.7089 78.1392 69.722 77.826 69.787C77.5001 69.8005 77.1785 69.8679 76.874 69.9867Z" fill="#EB996E"/>
<path d="M75.4999 69.1978C75.4809 69.1978 75.4491 69.2493 75.4523 69.3491C75.4648 69.4673 75.5111 69.5793 75.5856 69.6711C75.7633 69.8933 75.9664 69.9738 75.9886 69.9416C76.0108 69.9094 75.8585 69.758 75.7093 69.5713C75.5602 69.3845 75.5253 69.2074 75.4999 69.1978Z" fill="#EB996E"/>
<path d="M44.744 84.5282C44.3077 84.4855 43.8873 84.3398 43.5165 84.1027C43.1456 83.8657 42.8346 83.5438 42.6084 83.1629C42.5576 83.076 42.5131 82.9568 42.5798 82.8828C42.6057 82.861 42.6355 82.8447 42.6677 82.8348C42.6998 82.8248 42.7336 82.8214 42.767 82.8248C43.4573 82.8196 44.1429 82.9395 44.7916 83.179C44.8297 83.1878 44.8655 83.2047 44.8967 83.2286C44.9279 83.2524 44.9537 83.2827 44.9725 83.3175C44.9897 83.3719 44.9897 83.4305 44.9725 83.4849C44.8868 83.823 44.8011 84.1611 44.7123 84.5024" fill="#3271FC"/>
<g opacity="0.4">
<path opacity="0.4" d="M44.744 84.5282C44.3077 84.4855 43.8873 84.3398 43.5165 84.1027C43.1456 83.8657 42.8346 83.5438 42.6084 83.1629C42.5576 83.076 42.5131 82.9568 42.5798 82.8828C42.6057 82.861 42.6355 82.8447 42.6677 82.8348C42.6998 82.8248 42.7336 82.8214 42.767 82.8248C43.4573 82.8196 44.1429 82.9395 44.7916 83.179C44.8297 83.1878 44.8655 83.2047 44.8967 83.2286C44.9279 83.2524 44.9537 83.2827 44.9725 83.3175C44.9897 83.3719 44.9897 83.4305 44.9725 83.4849C44.8868 83.823 44.8011 84.1611 44.7123 84.5024" fill="black"/>
</g>
<path d="M65.5452 49.163C65.5452 49.163 66.5606 52.618 66.2814 52.4216C66.0021 52.2252 65.396 51.681 65.396 51.681L65.5452 49.163Z" fill="#EBEBEB"/>
<path d="M65.488 50.7568L66.0402 52.1028C66.0954 52.2421 66.1317 52.3883 66.1481 52.5375C66.1957 52.9142 66.2465 53.6033 66.0275 53.6516C65.9166 53.6579 65.8058 53.639 65.7031 53.596C65.6004 53.5531 65.5084 53.4874 65.4341 53.4037L65.488 50.7568Z" fill="#263238"/>
<path d="M48.2886 50.9693C48.2886 50.9693 53.7118 48.8216 56.717 50.7182C59.7221 52.6148 60.2679 55.6416 62.0577 55.6416C65.5484 55.6416 65.4341 53.1428 65.4341 53.1428L66.1767 53.3715C66.1767 53.8834 66.9827 57.5575 63.3207 58.005C59.6587 58.4526 58.0974 53.3747 54.7908 53.3715C52.7221 53.4069 50.7056 54.0354 48.9741 55.1843L46.5972 53.6613L48.2886 50.9693Z" fill="#263238"/>
<path d="M62.1973 57.96C61.2619 57.3945 60.5292 56.5404 60.1061 55.5224C59.262 53.5486 57.4532 51.2978 55.9427 50.7311C54.4321 50.1644 50.9383 49.7651 48.5234 51.3751L46.978 53.4938L48.9835 54.8173C50.1114 54.2161 51.297 53.7338 52.5218 53.3779C55.0161 52.6727 56.5329 53.4713 57.9831 54.8623C58.072 54.9493 58.1577 55.0362 58.2275 55.1199C58.9283 55.878 59.6975 56.568 60.525 57.1808C61.2453 57.6734 61.88 57.96 62.1973 57.96Z" fill="#455A64"/>
<path d="M174.533 27.9721C177.751 28.4777 180.108 25.7181 180.86 23.2935C181.555 21.0395 181.885 18.6921 182.86 16.5315C184.224 13.5369 187.835 12.1523 191.075 12.4292C194.315 12.7061 197.584 14.3612 200.453 15.91L199.659 33.942C199.659 33.942 193.417 27.18 190.415 27.0705C185.408 26.8677 185.681 35.2171 180.819 36.4504C180.819 36.4504 174.003 38.3244 169.395 32.2869C166.472 28.4519 166.222 23.7958 166.222 23.7958C166.222 23.7958 168.462 27.0222 174.533 27.9721Z" fill="#3271FC"/>
<path d="M200.593 12.9347C200.548 12.9347 199.672 32.0873 198.638 55.7124C197.603 79.3376 196.797 98.4966 196.842 98.4998C196.886 98.503 197.759 79.3504 198.797 55.7188C199.834 32.0873 200.637 12.9379 200.593 12.9347Z" fill="#263238"/>
<g opacity="0.2">
<path opacity="0.2" d="M183.419 22.0441C182.873 23.9494 182.077 25.7712 181.051 27.4602C180.125 28.9317 178.719 30.1714 177.034 30.5288C176.725 30.571 176.423 30.6499 176.133 30.7639C175.988 30.8236 175.862 30.9219 175.767 31.0482C175.673 31.1746 175.614 31.3244 175.596 31.4819C175.596 31.9553 176.063 32.2644 176.482 32.4737C177.064 32.7976 177.686 33.0403 178.332 33.195C178.966 33.3173 179.493 33.3882 179.941 32.873C180.374 32.4424 180.763 31.9689 181.102 31.4594C182.571 28.9188 183.298 25.2867 183.419 22.4144" fill="black"/>
</g>
<path d="M179.055 33.6265C179.055 33.6265 179.106 33.6039 179.198 33.5427C179.331 33.4546 179.46 33.3589 179.582 33.2562C180.034 32.8767 180.433 32.437 180.769 31.9488C181.266 31.2243 181.666 30.436 181.959 29.6047C182.315 28.5905 182.608 27.5549 182.838 26.5038C183.274 24.599 183.549 22.66 183.66 20.7078C183.701 19.9608 183.707 19.3554 183.707 18.9368C183.707 18.7404 183.707 18.5826 183.707 18.4538C183.713 18.3981 183.713 18.3421 183.707 18.2864C183.693 18.341 183.687 18.3974 183.688 18.4538C183.688 18.5826 183.688 18.7404 183.669 18.9336C183.65 19.3522 183.628 19.9576 183.571 20.7014C183.427 22.642 183.138 24.5687 182.708 26.4652C182.475 27.5108 182.183 28.5419 181.832 29.5532C181.544 30.3741 181.156 31.1552 180.677 31.878C180.354 32.3648 179.974 32.8093 179.544 33.2014C179.236 33.488 179.046 33.6168 179.055 33.6265Z" fill="#263238"/>
<path d="M219.995 102.306L177.481 109.367V102.306H219.995Z" fill="#E0E0E0"/>
<path d="M170.465 118.261L127.949 125.322V118.261H170.465Z" fill="#E0E0E0"/>
<path d="M121.275 133.521L78.759 140.582V133.521H121.275Z" fill="#E0E0E0"/>
<path d="M72.1489 145.666L29.6358 152.728V145.666H72.1489Z" fill="#E0E0E0"/>
<path d="M177.481 97.0186H219.995V102.309H177.481V97.0186Z" fill="#3271FC"/>
<g opacity="0.3">
<path opacity="0.3" d="M177.481 97.0186H190.749V102.309H177.481V97.0186Z" fill="black"/>
</g>
<path d="M127.952 112.97H170.465V118.261H127.952V112.97Z" fill="#3271FC"/>
<g opacity="0.3">
<path opacity="0.3" d="M127.949 112.97H141.217V118.261H127.949V112.97Z" fill="black"/>
</g>
<path d="M78.759 128.23H121.272V133.521H78.759V128.23Z" fill="#3271FC"/>
<g opacity="0.3">
<path opacity="0.3" d="M78.759 128.23H92.0267V133.521H78.759V128.23Z" fill="black"/>
</g>
<path d="M29.5691 140.376H72.0823V145.666H29.5691V140.376Z" fill="#3271FC"/>
<g opacity="0.3">
<path opacity="0.3" d="M29.5691 140.376H42.8368V145.666H29.5691V140.376Z" fill="black"/>
</g>
<path d="M55.7681 121.124C55.7675 121.355 55.6992 121.581 55.5719 121.774C55.4446 121.966 55.264 122.116 55.0529 122.204C54.8418 122.292 54.6096 122.315 54.3858 122.269C54.1619 122.224 53.9564 122.112 53.7952 121.948C53.6339 121.784 53.5242 121.575 53.4799 121.348C53.4356 121.12 53.4587 120.885 53.5462 120.671C53.6337 120.457 53.7818 120.274 53.9717 120.146C54.1615 120.017 54.3847 119.948 54.613 119.948C54.765 119.948 54.9155 119.979 55.0558 120.038C55.1962 120.097 55.3236 120.183 55.4309 120.293C55.5382 120.402 55.6233 120.531 55.6811 120.674C55.739 120.817 55.7685 120.969 55.7681 121.124Z" fill="#EBEBEB"/>
</svg>
