<svg width="23" height="23" viewBox="0 0 23 23" fill="none" xmlns="http://www.w3.org/2000/svg">
<g clip-path="url(#clip0)">
<path d="M22.9775 6.76206C22.9236 5.53998 22.726 4.69982 22.4429 3.9718C22.1508 3.19903 21.7015 2.50717 21.1128 1.93202C20.5377 1.34792 19.8413 0.89405 19.0775 0.606564C18.3452 0.323466 17.5094 0.125841 16.2874 0.0719592C15.0562 0.0135143 14.6653 0 11.5426 0C8.41996 0 8.0291 0.0135143 6.80246 0.067396C5.58038 0.121278 4.74021 0.319078 4.01237 0.602001C3.23943 0.89405 2.54757 1.34336 1.97242 1.93202C1.38832 2.50717 0.934629 3.20359 0.646968 3.96741C0.36387 4.69982 0.166246 5.53542 0.112364 6.7575C0.0539195 7.9887 0.0404053 8.37957 0.0404053 11.5022C0.0404053 14.6249 0.0539195 15.0158 0.107801 16.2424C0.161683 17.4645 0.359483 18.3047 0.64258 19.0327C0.934629 19.8055 1.38832 20.4973 1.97242 21.0725C2.54757 21.6566 3.24399 22.1104 4.00781 22.3979C4.74021 22.681 5.57582 22.8787 6.79807 22.9325C8.02453 22.9866 8.41557 22.9999 11.5382 22.9999C14.6609 22.9999 15.0518 22.9866 16.2784 22.9325C17.5005 22.8787 18.3407 22.681 19.0685 22.3979C20.6142 21.8003 21.8363 20.5782 22.4339 19.0327C22.7168 18.3003 22.9146 17.4645 22.9685 16.2424C23.0224 15.0158 23.0359 14.6249 23.0359 11.5022C23.0359 8.37957 23.0313 7.9887 22.9775 6.76206ZM20.9063 16.1526C20.8568 17.2758 20.6681 17.8824 20.5108 18.2868C20.1244 19.2888 19.3291 20.084 18.3272 20.4705C17.9228 20.6277 17.3118 20.8164 16.1929 20.8657C14.9798 20.9198 14.616 20.9331 11.5472 20.9331C8.4784 20.9331 8.11001 20.9198 6.90127 20.8657C5.77801 20.8164 5.17144 20.6277 4.76707 20.4705C4.26844 20.2862 3.81457 19.9941 3.44618 19.6122C3.06427 19.2393 2.77222 18.79 2.58793 18.2913C2.43068 17.887 2.242 17.2758 2.19269 16.1571C2.13863 14.944 2.12529 14.58 2.12529 11.5112C2.12529 8.4424 2.13863 8.074 2.19269 6.86544C2.242 5.74217 2.43068 5.13561 2.58793 4.73123C2.77222 4.23243 3.06427 3.77874 3.45074 3.41017C3.82352 3.02826 4.27283 2.73621 4.77163 2.5521C5.17601 2.39484 5.78713 2.20617 6.90583 2.15667C8.11896 2.10279 8.48297 2.08928 11.5516 2.08928C14.6249 2.08928 14.9888 2.10279 16.1975 2.15667C17.3208 2.20617 17.9273 2.39484 18.3317 2.5521C18.8303 2.73621 19.2842 3.02826 19.6526 3.41017C20.0345 3.78313 20.3266 4.23243 20.5108 4.73123C20.6681 5.13561 20.8568 5.74656 20.9063 6.86544C20.9602 8.07857 20.9737 8.4424 20.9737 11.5112C20.9737 14.58 20.9602 14.9394 20.9063 16.1526Z" fill="white"/>
<path d="M11.5427 5.59387C8.2808 5.59387 5.63428 8.24022 5.63428 11.5023C5.63428 14.7643 8.2808 17.4106 11.5427 17.4106C14.8047 17.4106 17.451 14.7643 17.451 11.5023C17.451 8.24022 14.8047 5.59387 11.5427 5.59387ZM11.5427 15.3349C9.42653 15.3349 7.71004 13.6186 7.71004 11.5023C7.71004 9.38595 9.42653 7.66963 11.5427 7.66963C13.659 7.66963 15.3753 9.38595 15.3753 11.5023C15.3753 13.6186 13.659 15.3349 11.5427 15.3349Z" fill="white"/>
<path d="M19.0642 5.3603C19.0642 6.12201 18.4465 6.73964 17.6846 6.73964C16.9229 6.73964 16.3053 6.12201 16.3053 5.3603C16.3053 4.5984 16.9229 3.98096 17.6846 3.98096C18.4465 3.98096 19.0642 4.5984 19.0642 5.3603Z" fill="white"/>
</g>
<defs>
<clipPath id="clip0">
<rect width="23" height="23" fill="white"/>
</clipPath>
</defs>
</svg>
